<?xml version="1.0" encoding="UTF-8"?><svg id="Ebene_1" xmlns="http://www.w3.org/2000/svg" xmlns:xlink="http://www.w3.org/1999/xlink" viewBox="0 0 2166.13 2166.13"><defs><style>.cls-1{filter:url(#outer-glow-4);}.cls-2{fill:#4243af;}.cls-3{fill:#8bff9e;}</style><filter id="outer-glow-4" filterUnits="userSpaceOnUse"><feOffset dx="0" dy="0"/><feGaussianBlur result="blur" stdDeviation="6"/><feFlood flood-color="#8bff9e" flood-opacity=".25"/><feComposite in2="blur" operator="in"/><feComposite in="SourceGraphic"/></filter></defs><rect width="2166.13" height="2166.13"/><g class="cls-1"><path class="cls-3" d="M1801.48,1105.58c-14.95,0-25.74,8.22-29.62,22.56-.23,.82-.05,1.71,.47,2.39,.52,.68,1.33,1.08,2.18,1.08h48.19c1.52,0,2.75-1.23,2.75-2.75l.02-2.18c0-13.21-8.97-21.1-24-21.1Zm-23.17,20.53c3.87-9.73,11.98-15.04,23.17-15.04,8.31,0,18.2,2.63,18.5,15.04h-41.66Z"/><path class="cls-3" d="M1344.59,1084.27c-.52-.66-1.3-1.05-2.14-1.06-15.84-.09-27.11,.65-35.87,10.43,.53-3.42,.94-3.08,1.14-5.18,.07-.77-.19-1.53-.71-2.11s-1.26-.9-2.03-.9h-30.8c-1.35,0-2.51,.99-2.72,2.33-1.09,7.05-2.88,15.3-4.6,23.28-.58,2.66-1.15,5.33-1.71,7.95l-15.82,75.09c-.17,.81,.03,1.66,.56,2.3,.52,.64,1.3,1.02,2.13,1.02h32.32c1.3,0,2.43-.91,2.69-2.19l7.32-35.41c5.76-28.19,17.25-39.78,39.56-39.78,.29,0,.58,0,.88,0h.04c1.27,0,2.37-.87,2.67-2.1l7.58-31.33c.2-.82,.01-1.67-.5-2.33Zm-11.91,30.28c-24.05,.47-37.57,14.18-43.7,44.16l-6.87,33.21h-26.7l15.12-71.77c.55-2.62,1.12-5.27,1.7-7.92,1.56-7.21,3.17-14.63,4.29-21.27h25.38c-.58,4.57-1.67,7.56-2.92,13.33-.29,1.33,.44,2.67,1.71,3.15,1.26,.48,2.7-.04,3.37-1.23,8.11-14.46,18.35-16.84,34.86-17.44l-6.24,25.8Z"/><path class="cls-3" d="M1471.98,1086.47c-.52-.64-1.31-1.02-2.14-1.02h-31.96c-1.3,0-2.42,.91-2.69,2.18l-10,47.05c-5.07,23.92-14.02,34.58-29.02,34.58-4.04,0-6.75-.92-8.28-2.82-2.43-2.99-2.61-8.92-.56-18.65l12.59-59.03c.17-.81-.03-1.66-.55-2.3-.52-.64-1.31-1.02-2.14-1.02h-31.98c-1.3,0-2.41,.9-2.69,2.17l-14.1,65.86c-3.21,15.29-1.45,27.22,5.23,35.45,6.03,7.43,15.87,11.36,28.47,11.36,16.42,0,25.11-4.12,31.68-9.92-.22,1.6-.39,3.01-.47,4.06-.06,.76,.2,1.52,.72,2.08,.52,.57,1.25,.89,2.02,.89h31.6c1.34,0,2.49-.97,2.71-2.3,1.32-7.93,3.28-18.02,5.51-28.39,0,0,0,0,0,0l16.59-77.95c.17-.81-.03-1.66-.55-2.3Zm-21.41,79.1c-2.04,9.48-3.86,18.72-5.17,26.34h-26.21c.34-2.63,.87-6.02,1.36-9.16,.19-1.21-.45-2.4-1.56-2.92-1.1-.52-2.43-.24-3.23,.69-5.82,6.69-12.42,14.27-33.59,14.27-10.88,0-19.25-3.22-24.2-9.33-5.59-6.89-6.98-17.27-4.13-30.85l13.63-63.68h26.36l-11.89,55.71c-2.45,11.64-1.93,18.81,1.67,23.25,2.65,3.27,6.75,4.85,12.55,4.85,23.44,0,30.86-22.22,34.4-38.94l9.53-44.88h26.34l-15.89,74.63Z"/><path class="cls-3" d="M1560.84,1082.56c-13.33,0-24.47,3.79-33.23,11.28,.31-2.15,.57-4.12,.69-5.37,.08-.77-.18-1.54-.7-2.12-.52-.57-1.26-.9-2.04-.9h-31.54c-1.32,0-2.45,.93-2.7,2.23-1.6,8.26-3.47,17.82-5.33,26.83l-16.66,79.59c-.17,.81,.03,1.65,.56,2.3,.52,.64,1.31,1.01,2.13,1.01h31.96c1.3,0,2.43-.92,2.69-2.19l10.59-51.4c4.22-20.19,13.07-30.01,27.06-30.01,5.02,0,8.54,1.19,10.45,3.54,2.39,2.94,2.78,8.1,1.2,15.76l-12.77,60.99c-.17,.81,.03,1.65,.56,2.3,.52,.64,1.31,1.01,2.13,1.01h32.14c1.3,0,2.42-.91,2.69-2.18l13.5-63.57c3.45-16.58,1.67-29.33-5.29-37.88-5.97-7.34-15.68-11.21-28.09-11.21Zm28,47.96l-13.04,61.38h-26.53l12.08-57.68c1.97-9.53,1.23-16-2.32-20.35-3.01-3.69-7.96-5.57-14.71-5.57-16.75,0-27.66,11.57-32.44,34.38l-10.14,49.22h-26.34l15.97-76.28s0,0,0-.01c1.7-8.23,3.41-16.92,4.91-24.67h26.18c-.45,3.38-1.17,7.95-1.71,10.61-.25,1.24,.38,2.5,1.53,3.04,1.14,.54,2.51,.22,3.31-.77,8.48-10.61,20.01-15.76,35.25-15.76,10.85,0,18.87,3.09,23.83,9.19,5.86,7.21,7.27,18.41,4.17,33.28Z"/><path class="cls-3" d="M1690.62,1082.56c-13.33,0-24.47,3.79-33.23,11.28,.31-2.15,.57-4.11,.69-5.37,.08-.77-.18-1.54-.7-2.12-.52-.58-1.26-.9-2.04-.9h-31.55c-1.32,0-2.45,.93-2.7,2.23-1.6,8.26-3.47,17.82-5.33,26.83l-16.66,79.59c-.17,.81,.03,1.65,.56,2.3,.52,.64,1.31,1.01,2.13,1.01h31.96c1.3,0,2.43-.91,2.69-2.19l10.59-51.4c4.23-20.19,13.08-30.01,27.06-30.01,5.02,0,8.53,1.19,10.45,3.54,2.39,2.94,2.79,8.09,1.21,15.76l-12.78,60.99c-.17,.81,.03,1.65,.56,2.3,.52,.64,1.31,1.01,2.13,1.01h32.14c1.3,0,2.42-.91,2.69-2.18l13.5-63.57c3.45-16.58,1.68-29.32-5.28-37.88-5.97-7.34-15.68-11.22-28.09-11.22Zm28,47.96l-13.04,61.38h-26.53l12.08-57.68c1.96-9.53,1.22-16-2.33-20.35-3.01-3.69-7.96-5.56-14.71-5.56-16.75,0-27.66,11.57-32.44,34.38l-10.14,49.22h-26.33l15.97-76.28s0,0,0-.01c1.69-8.23,3.4-16.92,4.91-24.67h26.18c-.46,3.39-1.18,7.97-1.71,10.61-.25,1.24,.38,2.5,1.53,3.04,1.15,.54,2.52,.22,3.31-.77,8.48-10.61,20.01-15.76,35.25-15.76,10.86,0,18.87,3.09,23.83,9.19,5.86,7.21,7.27,18.41,4.17,33.28Z"/><path class="cls-3" d="M1803.12,1082.56c-44.47,0-67.74,33.44-67.74,66.47,0,24.78,14.05,51.26,53.48,51.26s54.9-22.69,60.24-36.22c.33-.85,.23-1.8-.28-2.55-.51-.75-1.36-1.2-2.27-1.2h-33.3c-.9,0-1.75,.44-2.26,1.19-3.88,5.62-8.33,8.87-19.59,8.87-16.43,0-18.89-11.61-18.89-18.53v-.23h78.21c1.2,0,2.26-.78,2.62-1.93,2.35-7.54,2.84-13.03,2.84-18.95,0-30.16-19.83-48.17-53.04-48.17Zm45.53,63.55h-78.85c-1.46,0-2.67,1.15-2.74,2.61-.03,.56-.05,2.28-.05,3.11,0,15.05,9.11,24.03,24.38,24.03,12.75,0,18.72-3.97,23.26-10.06h27.68c-6,12.25-20.29,28.99-53.47,28.99-30.05,0-47.98-17.11-47.98-45.76,0-30.3,21.38-60.98,62.24-60.98,29.77,0,47.55,15.95,47.55,42.67,0,5.04-.35,9.48-2.01,15.38Z"/><path class="cls-3" d="M1953.02,1084.27c-.52-.66-1.3-1.05-2.14-1.06-15.77-.09-27.1,4.09-35.86,13.87,.53-3.42,.93-6.52,1.13-8.62,.08-.77-.18-1.53-.7-2.11s-1.26-.9-2.03-.9h-30.8c-1.35,0-2.51,.99-2.72,2.33-1.09,7.07-2.89,15.35-4.62,23.36-.57,2.63-1.14,5.27-1.69,7.87l-15.82,75.09c-.17,.81,.03,1.66,.56,2.3,.52,.64,1.3,1.02,2.13,1.02h32.32c1.3,0,2.43-.91,2.69-2.19l7.33-35.41c5.76-28.19,17.25-39.78,39.56-39.78,.29,0,.58,0,.88,0h.04c1.27,0,2.37-.87,2.67-2.1l7.58-31.33c.2-.82,.01-1.67-.5-2.33Zm-11.91,30.28c-24.05,.47-37.57,14.18-43.7,44.15l-6.87,33.21h-26.7l15.12-71.77c.54-2.59,1.11-5.21,1.68-7.84,1.57-7.24,3.18-14.69,4.3-21.36h25.39c-.58,4.56-1.68,11.56-2.92,17.33-.29,1.33,.44,2.67,1.71,3.15,1.27,.48,2.7-.04,3.37-1.23,8.1-14.46,18.35-20.84,34.86-21.44l-6.24,25.8Z"/></g><g><path class="cls-2" d="M365.44,1007.01c-.03-24.12-18.61-38.53-49.71-38.53h-69.71c-1.3,0-2.42,.91-2.69,2.18l-30.75,145.11c-.17,.81,.03,1.66,.55,2.3,.52,.64,1.31,1.02,2.14,1.02h78.3c40.26,0,64.4-18.07,64.55-48.35,0-13.82-7.75-23.5-16.05-28.8,14.96-6.51,23.39-18.96,23.36-34.92Zm-47.87,63.69c0,7.21-2.6,16.79-25.06,16.79h-35.56l6.45-30.6h33.7c9.34,0,20.46,2.4,20.46,13.81Zm-47.46-45.41l5.38-25.03h32.93c16.28,0,16.28,8.67,16.28,11.51,0,6.68-2.52,13.51-21.19,13.51h-33.4Z"/><path class="cls-2" d="M631.41,968.48h-42.73c-.97,0-1.86,.51-2.36,1.34l-86.36,145.11c-.5,.85-.52,1.9-.03,2.76s1.4,1.39,2.39,1.39h35.5c.96,0,1.84-.5,2.34-1.31l19.65-32.08h57.05l5.71,31.15c.24,1.3,1.38,2.25,2.7,2.25h34.15c.82,0,1.6-.36,2.12-1,.52-.63,.73-1.46,.58-2.27l-28.01-145.11c-.25-1.29-1.38-2.23-2.7-2.23Zm-19.93,84.52h-34.35c11.75-21.17,20.66-37.46,26.5-48.92,1.4,10.53,3.92,25.51,7.51,46.85l.35,2.07Z"/><path class="cls-2" d="M773.46,968.48h-59.14c-1.3,0-2.42,.91-2.69,2.18l-30.75,145.11c-.17,.81,.03,1.66,.55,2.3,.52,.64,1.31,1.02,2.14,1.02h65.99c56.47,0,91.55-32.29,91.55-84.28,0-33.02-20.92-66.33-67.66-66.33Zm26.53,67.83c0,24.22-12.32,50.09-46.9,50.09h-27.27l18.15-85.41h21.3c22.71,0,34.71,12.22,34.71,35.32Z"/><path class="cls-2" d="M968.61,1086.4h-78.36l6.04-29.13h74.97c1.29,0,2.4-.89,2.68-2.15l6.07-27.2c.18-.81-.02-1.67-.54-2.32-.52-.65-1.31-1.03-2.14-1.03h-73.85l4.77-23.41h79.14c1.29,0,2.41-.9,2.68-2.17l5.89-27.19c.17-.81-.03-1.66-.55-2.31s-1.31-1.02-2.14-1.02h-113.8c-1.3,0-2.42,.91-2.69,2.18l-30.75,145.11c-.17,.81,.03,1.66,.55,2.3,.52,.64,1.31,1.02,2.14,1.02h114.2c1.42,0,2.64-.99,2.93-2.38l5.67-26.69c.4-1.87-1.03-3.62-2.93-3.62Z"/><path class="cls-2" d="M484.59,1086.4h-71.13l24.33-114.6c.17-.81-.03-1.66-.55-2.3-.52-.64-1.31-1.02-2.14-1.02h-33.15c-1.3,0-2.42,.91-2.69,2.18l-30.75,145.11c-.17,.81,.03,1.66,.55,2.3,.52,.64,1.31,1.02,2.14,1.02h107.3c1.15,0,2.18-.71,2.58-1.79l6.08-27.19c.31-.84,.19-1.79-.32-2.52-.52-.74-1.36-1.18-2.26-1.18Z"/></g><g><path class="cls-2" d="M1067.71,968.48h-48.1c-1.3,0-2.4,.89-2.69,2.15l-50.44,223.66c-.18,.82,.01,1.67,.54,2.33,.53,.66,1.31,1.03,2.15,1.03h47.83c1.3,0,2.4-.88,2.69-2.15l50.71-223.66c.19-.82,0-1.67-.53-2.33-.53-.66-1.31-1.04-2.15-1.04Zm-5.92,7.98l-48.48,213.81h-38.36l48.36-214.42h38.62l-.14,.61Z"/><path class="cls-2" d="M1137.46,968.48h-48.1c-1.3,0-2.4,.89-2.69,2.15l-50.44,223.66c-.19,.82,0,1.67,.53,2.33,.53,.66,1.31,1.04,2.15,1.04h47.83c1.3,0,2.4-.88,2.69-2.15l50.71-223.66c.19-.82,0-1.67-.53-2.33s-1.31-1.04-2.15-1.04Zm-5.92,7.98l-48.48,213.81h-38.36l48.36-214.42h38.62l-.14,.61Z"/><path class="cls-2" d="M1207.21,968.48h-48.1c-1.3,0-2.4,.89-2.69,2.15l-50.44,223.66c-.19,.82,0,1.67,.53,2.33,.53,.66,1.31,1.04,2.15,1.04h47.83c1.3,0,2.4-.88,2.69-2.15l50.71-223.66c.19-.82,0-1.67-.53-2.33-.53-.66-1.31-1.04-2.15-1.04Zm-5.92,7.98l-48.48,213.81h-38.36l48.36-214.42h38.62l-.14,.61Z"/><path class="cls-2" d="M1276.96,968.48h-48.1c-1.3,0-2.4,.89-2.69,2.15l-50.44,223.66c-.18,.82,.01,1.67,.54,2.33,.53,.66,1.31,1.03,2.15,1.03h47.83c1.3,0,2.4-.88,2.69-2.15l50.71-223.66c.19-.82,0-1.67-.53-2.33-.53-.66-1.31-1.04-2.15-1.04Zm-5.92,7.98l-48.48,213.81h-38.36l48.36-214.42h38.62l-.14,.61Z"/></g><g><polygon class="cls-3" points="1214.44 951.17 1258.2 951.17 1097.29 1214.96 1053.53 1214.96 1214.44 951.17"/><polygon class="cls-3" points="1148.83 951.17 1192.6 951.17 1031.69 1214.96 987.93 1214.96 1148.83 951.17"/></g></svg>