<?xml version="1.0" encoding="UTF-8" standalone="no"?>
<!-- Generator: Gravit.io -->
<svg xmlns="http://www.w3.org/2000/svg" xmlns:xlink="http://www.w3.org/1999/xlink" style="isolation:isolate" viewBox="0 0 250 250" width="250pt" height="250pt"><defs><clipPath id="_clipPath_d7ZJkFG32pqG5k0eUMpdIIpeXHE8AoPx"><rect width="250" height="250"/></clipPath></defs><g clip-path="url(#_clipPath_d7ZJkFG32pqG5k0eUMpdIIpeXHE8AoPx)"><rect width="250" height="250" style="fill:rgb(0,0,0)" fill-opacity="0"/><path d="M 10.34 8 L 239.66 8 C 240.951 8 242 9.049 242 10.34 L 242 239.66 C 242 240.951 240.951 242 239.66 242 L 10.34 242 C 9.049 242 8 240.951 8 239.66 L 8 10.34 C 8 9.049 9.049 8 10.34 8 Z" style="stroke:none;fill:#0179B2;stroke-miterlimit:10;"/><path d="M 11.26 4 L 238.74 4 C 242.747 4 246 7.253 246 11.26 L 246 238.74 C 246 242.747 242.747 246 238.74 246 L 11.26 246 C 7.253 246 4 242.747 4 238.74 L 4 11.26 C 4 7.253 7.253 4 11.26 4 Z" style="fill:none;stroke:#FFFFFF;stroke-width:8;stroke-linecap:square;stroke-dasharray:18;stroke-miterlimit:2;"/><g><mask id="_mask_Ebb2QY6IFfocVRV718Pzl64PMIH88xo3"><circle vector-effect="non-scaling-stroke" cx="121.41592136712046" cy="152.64053824469988" r="82.06906479977062" fill="white" stroke="none"/></mask><circle vector-effect="non-scaling-stroke" cx="121.41592136712046" cy="152.64053824469988" r="82.06906479977062" fill="none"/><circle vector-effect="non-scaling-stroke" cx="121.41592136712046" cy="152.64053824469988" r="82.06906479977062" fill="none" mask="url(#_mask_Ebb2QY6IFfocVRV718Pzl64PMIH88xo3)" stroke-width="10" stroke="rgb(255,255,255)" stroke-linejoin="miter" stroke-linecap="square" stroke-miterlimit="3"/><g><mask id="_mask_TMmLd88sutQ7zcgeYmZ97wqer1BU8J7P"><path d=" M 87.735 39.226 C 90.672 34.715 60.464 52.319 59.521 63.586 C 58.579 74.853 56.603 84.943 60.462 94.779 Q 64.321 104.615 88.724 99.839 Q 79.748 73.049 81.158 62.825 C 82.569 52.601 84.799 43.737 87.735 39.226 Z " fill="white" stroke="none"/></mask><path d=" M 87.735 39.226 C 90.672 34.715 60.464 52.319 59.521 63.586 C 58.579 74.853 56.603 84.943 60.462 94.779 Q 64.321 104.615 88.724 99.839 Q 79.748 73.049 81.158 62.825 C 82.569 52.601 84.799 43.737 87.735 39.226 Z " fill="rgb(1,121,178)"/><path d=" M 87.735 39.226 C 90.672 34.715 60.464 52.319 59.521 63.586 C 58.579 74.853 56.603 84.943 60.462 94.779 Q 64.321 104.615 88.724 99.839 Q 79.748 73.049 81.158 62.825 C 82.569 52.601 84.799 43.737 87.735 39.226 Z " fill="rgb(1,121,178)" mask="url(#_mask_TMmLd88sutQ7zcgeYmZ97wqer1BU8J7P)" vector-effect="non-scaling-stroke" stroke-width="4" stroke="rgb(255,255,255)" stroke-linejoin="miter" stroke-linecap="square" stroke-miterlimit="3"/><mask id="_mask_nQtDpTh8Dr6Fh6E6z8L9s8xz3JRaO1t7"><path d=" M 86.1 39.35 C 82.724 38.76 110.822 30.088 119.47 38.059 C 128.119 46.029 144.501 65.677 142.889 68.31 C 141.278 70.944 131.506 81.5 129.109 82.908 C 128.184 80.113 117.397 57.605 111.122 51.445 C 104.846 45.285 89.477 39.941 86.1 39.35 Z " fill="white" stroke="none"/></mask><path d=" M 86.1 39.35 C 82.724 38.76 110.822 30.088 119.47 38.059 C 128.119 46.029 144.501 65.677 142.889 68.31 C 141.278 70.944 131.506 81.5 129.109 82.908 C 128.184 80.113 117.397 57.605 111.122 51.445 C 104.846 45.285 89.477 39.941 86.1 39.35 Z " fill="rgb(1,121,178)"/><path d=" M 86.1 39.35 C 82.724 38.76 110.822 30.088 119.47 38.059 C 128.119 46.029 144.501 65.677 142.889 68.31 C 141.278 70.944 131.506 81.5 129.109 82.908 C 128.184 80.113 117.397 57.605 111.122 51.445 C 104.846 45.285 89.477 39.941 86.1 39.35 Z " fill="rgb(1,121,178)" mask="url(#_mask_nQtDpTh8Dr6Fh6E6z8L9s8xz3JRaO1t7)" vector-effect="non-scaling-stroke" stroke-width="4" stroke="rgb(255,255,255)" stroke-linejoin="miter" stroke-linecap="square" stroke-miterlimit="3"/><mask id="_mask_H9kF1Az2qE1MeFL02Suzuzpc6Pl4iTPG"><path d=" M 130.034 83.124 C 125.529 70.228 117.503 55.259 109.022 47.777 Q 100.542 40.296 86.1 39.35 Q 77.63 54.858 79.482 67.572 C 81.335 80.286 85.673 97.207 87.647 100.209 C 92.143 99.6 112.742 96.703 130.034 83.124 Z " fill="white" stroke="none"/></mask><path d=" M 130.034 83.124 C 125.529 70.228 117.503 55.259 109.022 47.777 Q 100.542 40.296 86.1 39.35 Q 77.63 54.858 79.482 67.572 C 81.335 80.286 85.673 97.207 87.647 100.209 C 92.143 99.6 112.742 96.703 130.034 83.124 Z " fill="rgb(1,121,178)"/><path d=" M 130.034 83.124 C 125.529 70.228 117.503 55.259 109.022 47.777 Q 100.542 40.296 86.1 39.35 Q 77.63 54.858 79.482 67.572 C 81.335 80.286 85.673 97.207 87.647 100.209 C 92.143 99.6 112.742 96.703 130.034 83.124 Z " fill="rgb(1,121,178)" mask="url(#_mask_H9kF1Az2qE1MeFL02Suzuzpc6Pl4iTPG)" vector-effect="non-scaling-stroke" stroke-width="4" stroke="rgb(255,255,255)" stroke-linejoin="miter" stroke-linecap="square" stroke-miterlimit="3"/><path d=" M 59.705 90.4 C 55.902 98.509 52.626 103.364 52.871 105.537 C 53.116 107.709 61.955 113.979 82.047 113.342 C 102.138 112.706 133.508 103.622 143.18 95.284 C 152.851 86.945 157.382 78.395 156.618 76.902 Q 155.854 75.409 139.316 63.039 Q 129.434 77.713 122.391 81.644 C 115.448 85.519 96.596 93.456 88.24 94.588 C 80.543 95.631 66.236 94.722 59.705 90.4 Z " fill="rgb(1,121,178)" vector-effect="non-scaling-stroke" stroke-width="2" stroke="rgb(255,255,255)" stroke-linejoin="miter" stroke-linecap="square" stroke-miterlimit="3"/><path d=" M 151.872 77.128 C 151.817 77.461 151.695 77.754 151.508 78.005 C 151.268 78.325 150.97 78.499 150.615 78.529 C 150.259 78.559 149.888 78.506 149.504 78.373 C 149.12 78.239 148.751 78.062 148.4 77.84 C 148.048 77.619 147.755 77.421 147.521 77.245 C 146.83 76.729 146.325 76.244 146.007 75.79 C 145.69 75.337 145.481 74.911 145.381 74.513 C 145.28 74.114 145.253 73.74 145.298 73.392 C 145.343 73.044 145.37 72.712 145.38 72.396 C 145.391 72.08 145.347 71.778 145.25 71.489 C 145.154 71.202 144.919 70.918 144.546 70.639 C 144.297 70.453 144.079 70.327 143.891 70.261 C 143.704 70.196 143.545 70.17 143.415 70.185 C 143.286 70.2 143.175 70.24 143.084 70.305 C 142.992 70.369 142.919 70.439 142.863 70.513 C 142.66 70.784 142.546 71.111 142.518 71.493 C 142.491 71.875 142.508 72.284 142.57 72.72 L 140.733 71.159 C 140.769 70.736 140.839 70.341 140.942 69.973 C 141.045 69.605 141.206 69.273 141.425 68.98 C 141.557 68.804 141.726 68.649 141.933 68.517 C 142.14 68.384 142.396 68.316 142.701 68.311 C 143.006 68.306 143.371 68.387 143.795 68.554 C 144.219 68.722 144.714 69.017 145.28 69.44 C 145.653 69.719 146.122 70.08 146.685 70.522 C 147.248 70.964 147.868 71.453 148.544 71.988 C 149.221 72.523 149.944 73.089 150.715 73.686 C 151.485 74.283 152.257 74.871 153.03 75.449 L 152.193 76.569 C 151.98 76.394 151.745 76.203 151.489 75.999 C 151.232 75.795 150.914 75.543 150.536 75.243 C 150.157 74.943 149.682 74.569 149.113 74.122 C 148.542 73.675 147.828 73.118 146.97 72.452 C 147.084 72.644 147.15 72.837 147.168 73.029 C 147.186 73.22 147.197 73.416 147.198 73.616 C 147.198 73.816 147.202 74.021 147.206 74.231 C 147.21 74.442 147.248 74.657 147.321 74.876 C 147.393 75.096 147.508 75.317 147.666 75.538 C 147.824 75.76 148.054 75.984 148.358 76.211 C 148.607 76.397 148.822 76.527 149.004 76.6 C 149.186 76.674 149.349 76.715 149.494 76.724 C 149.639 76.732 149.758 76.709 149.852 76.654 C 149.946 76.6 150.024 76.533 150.084 76.453 C 150.163 76.346 150.215 76.22 150.237 76.074 C 150.26 75.929 150.261 75.77 150.24 75.596 L 151.872 77.128 Z " fill="rgb(255,255,255)"/><path d=" M 82.974 39.805 C 82.584 38.67 83.714 37.252 85.497 36.639 C 87.279 36.027 89.043 36.45 89.433 37.585 C 89.823 38.719 88.692 40.137 86.91 40.75 C 85.127 41.363 83.363 40.939 82.974 39.805 Z " fill="rgb(255,255,255)"/><path d=" M 81.897 36.673 C 81.507 35.539 82.638 34.12 84.421 33.508 C 86.203 32.895 87.967 33.319 88.357 34.453 C 88.746 35.587 87.616 37.006 85.833 37.618 C 84.051 38.231 82.287 37.807 81.897 36.673 Z " fill="rgb(255,255,255)"/><path d=" M 80.781 33.425 C 80.391 32.291 81.522 30.872 83.304 30.26 C 85.087 29.647 86.851 30.071 87.24 31.205 C 87.63 32.339 86.5 33.758 84.717 34.37 C 82.934 34.983 81.171 34.559 80.781 33.425 Z " fill="rgb(255,255,255)"/><g><path d=" M 83.23 29.195 Q 67.359 32.121 58.709 35.678 C 50.058 39.234 45.37 41.867 45.654 42.693 C 45.938 43.52 56.611 40.046 59.785 38.809 Q 62.959 37.573 83.23 29.195 Z " fill="rgb(255,255,255)"/><path d=" M 82.718 29.403 Q 98.589 26.477 107.24 22.921 C 115.89 19.364 120.579 16.731 120.295 15.905 C 120.011 15.078 109.337 18.552 106.163 19.789 Q 102.989 21.026 82.718 29.403 Z " fill="rgb(255,255,255)"/></g><path d=" M 79.744 30.409 C 79.355 29.275 80.485 27.857 82.268 27.244 C 84.05 26.631 85.814 27.055 86.204 28.189 C 86.594 29.324 85.463 30.742 83.681 31.354 C 81.898 31.967 80.134 31.543 79.744 30.409 Z " fill="rgb(255,255,255)"/></g><g><path d=" M 188.502 162.433 Q 185.369 203.781 163.129 209.732 Q 140.889 215.684 133.058 177.155 Q 161.876 179.348 188.502 162.433 Z  M 187.34 164.33 C 186.84 169.77 186 175.16 184.81 180.48 C 183.93 184.47 182.62 188.35 180.91 192.06 C 179.82 194.41 178.51 196.66 177.01 198.77 C 175.79 200.49 174.38 202.05 172.8 203.44 C 171.38 204.7 169.82 205.78 168.15 206.68 C 166.47 207.58 164.7 208.28 162.87 208.77 C 161.87 209.04 160.85 209.24 159.82 209.37 C 158.92 209.49 158.02 209.54 157.12 209.53 C 156.3 209.51 155.49 209.44 154.68 209.3 C 153.91 209.17 153.15 208.98 152.41 208.73 C 151.67 208.48 150.95 208.18 150.26 207.82 C 149.52 207.43 148.82 207 148.15 206.51 C 147.41 205.97 146.71 205.38 146.06 204.74 C 145.3 204 144.59 203.21 143.94 202.37 C 143.41 201.7 142.91 201 142.45 200.28 C 141.91 199.46 141.4 198.61 140.93 197.74 C 140.58 197.1 140.24 196.44 139.93 195.78 C 139.57 195.04 139.24 194.29 138.92 193.54 C 137.96 191.27 137.12 188.95 136.43 186.58 C 135.62 183.83 134.91 181.05 134.31 178.24 C 138.58 178.5 142.87 178.45 147.14 178.07 C 151.81 177.66 156.43 176.87 160.97 175.7 C 165.71 174.48 170.35 172.87 174.82 170.88 C 179.13 168.98 183.31 166.79 187.34 164.33 Z " fill-rule="evenodd" fill="none" vector-effect="non-scaling-stroke" stroke-width="2" stroke="rgb(255,255,255)" stroke-linejoin="miter" stroke-linecap="square" stroke-miterlimit="3"/><mask id="_mask_eMjPWtjR3SrDZzaFXcqep7QUgCGAYIGy"><path d=" M 142.321 201.876 Q 164.294 196.84 171.273 205.034 Q 171.519 205.322 171.721 205.602 Q 167.857 208.467 163.129 209.732 Q 150.344 213.154 142.321 201.876 Z " fill-rule="evenodd" fill="white" stroke="none"/></mask><path d=" M 142.321 201.876 Q 164.294 196.84 171.273 205.034 Q 171.519 205.322 171.721 205.602 Q 167.857 208.467 163.129 209.732 Q 150.344 213.154 142.321 201.876 Z " fill-rule="evenodd" fill="rgb(255,255,255)"/><path d=" M 142.321 201.876 Q 164.294 196.84 171.273 205.034 Q 171.519 205.322 171.721 205.602 Q 167.857 208.467 163.129 209.732 Q 150.344 213.154 142.321 201.876 Z " fill-rule="evenodd" fill="rgb(255,255,255)" mask="url(#_mask_eMjPWtjR3SrDZzaFXcqep7QUgCGAYIGy)" vector-effect="non-scaling-stroke" stroke-width="2" stroke="rgb(255,255,255)" stroke-linejoin="miter" stroke-linecap="square" stroke-miterlimit="3"/><path d=" M 148.069 207.97 C 151.127 209.442 153.123 211.086 159.701 210.543 C 169.769 209.711 156.869 218.408 157.705 224.36 C 154.65 230.35 129.043 235.636 131.275 232.582 C 133.389 222.715 144.781 215.512 148.069 207.97 Z " fill="rgb(118,163,255)" fill-opacity="0.29"/><mask id="_mask_MgHgIhEbwQasHenkFwcpx1zkOJsm75cj"><path d=" M 134.851 164.796 C 145.08 160.248 152.221 149.994 152.221 138.085 C 152.221 121.96 139.13 108.869 123.005 108.869 C 106.88 108.869 93.789 121.96 93.789 138.085 C 93.789 147.811 98.552 156.433 105.87 161.744 Q 131.024 154.404 134.851 164.796 Z " fill-rule="evenodd" fill="white" stroke="none"/></mask><path d=" M 134.851 164.796 C 145.08 160.248 152.221 149.994 152.221 138.085 C 152.221 121.96 139.13 108.869 123.005 108.869 C 106.88 108.869 93.789 121.96 93.789 138.085 C 93.789 147.811 98.552 156.433 105.87 161.744 Q 131.024 154.404 134.851 164.796 Z " fill-rule="evenodd" fill="none"/><path d=" M 134.851 164.796 C 145.08 160.248 152.221 149.994 152.221 138.085 C 152.221 121.96 139.13 108.869 123.005 108.869 C 106.88 108.869 93.789 121.96 93.789 138.085 C 93.789 147.811 98.552 156.433 105.87 161.744 Q 131.024 154.404 134.851 164.796 Z " fill-rule="evenodd" fill="none" mask="url(#_mask_MgHgIhEbwQasHenkFwcpx1zkOJsm75cj)" vector-effect="non-scaling-stroke" stroke-width="4" stroke="rgb(255,255,255)" stroke-linejoin="miter" stroke-linecap="square" stroke-miterlimit="3"/><mask id="_mask_Jv1JmTVy3JhL85TkQZQaX9hKmpBbC2JK"><path d=" M 199.043 148.866 C 206.094 143.53 210.653 135.071 210.653 125.555 C 210.653 109.431 197.562 96.339 181.437 96.339 C 165.312 96.339 152.221 109.431 152.221 125.555 C 152.221 140.919 164.106 153.529 179.176 154.685 Q 180.401 152.733 183.65 149.726 Q 193.651 140.471 199.043 148.866 Z " fill-rule="evenodd" fill="white" stroke="none"/></mask><path d=" M 199.043 148.866 C 206.094 143.53 210.653 135.071 210.653 125.555 C 210.653 109.431 197.562 96.339 181.437 96.339 C 165.312 96.339 152.221 109.431 152.221 125.555 C 152.221 140.919 164.106 153.529 179.176 154.685 Q 180.401 152.733 183.65 149.726 Q 193.651 140.471 199.043 148.866 Z " fill-rule="evenodd" fill="rgb(1,121,178)"/><path d=" M 199.043 148.866 C 206.094 143.53 210.653 135.071 210.653 125.555 C 210.653 109.431 197.562 96.339 181.437 96.339 C 165.312 96.339 152.221 109.431 152.221 125.555 C 152.221 140.919 164.106 153.529 179.176 154.685 Q 180.401 152.733 183.65 149.726 Q 193.651 140.471 199.043 148.866 Z " fill-rule="evenodd" fill="rgb(1,121,178)" mask="url(#_mask_Jv1JmTVy3JhL85TkQZQaX9hKmpBbC2JK)" vector-effect="non-scaling-stroke" stroke-width="4" stroke="rgb(255,255,255)" stroke-linejoin="miter" stroke-linecap="square" stroke-miterlimit="3"/><path d=" M 189.823 97.893 Q 199.265 91.8 197.758 84.56" fill="none" vector-effect="non-scaling-stroke" stroke-width="1" stroke="rgb(255,255,255)" stroke-linejoin="miter" stroke-linecap="square" stroke-miterlimit="3"/><path d=" M 195.292 100.134 Q 204.03 96.746 206.103 89.514" fill="none" vector-effect="non-scaling-stroke" stroke-width="1" stroke="rgb(255,255,255)" stroke-linejoin="miter" stroke-linecap="square" stroke-miterlimit="3"/><path d=" M 180.496 97.02 Q 188.147 92.959 188.418 86.778" fill="none" vector-effect="non-scaling-stroke" stroke-width="1" stroke="rgb(255,255,255)" stroke-linejoin="miter" stroke-linecap="square" stroke-miterlimit="3"/><path d=" M 189.823 97.893 Q 199.265 91.8 197.758 84.56" fill="none" vector-effect="non-scaling-stroke" stroke-width="1" stroke="rgb(255,255,255)" stroke-linejoin="miter" stroke-linecap="square" stroke-miterlimit="3"/><path d=" M 177.068 188.159 C 182.347 187.782 185.509 185.5 187.693 183.827 C 189.878 182.153 188.455 175.369 186.029 163.96 Q 177.293 169.146 169.767 171.888 Q 172.793 188.465 177.068 188.159 Z " fill="rgb(255,255,255)"/></g><g><g><ellipse vector-effect="non-scaling-stroke" cx="130.03130633421864" cy="127.83806357488174" rx="11.96869366578133" ry="11.311280916118598" fill="rgb(255,255,255)"/><ellipse vector-effect="non-scaling-stroke" cx="187.70556537068316" cy="114.49556226835848" rx="11.705565370683132" ry="11.062605651637185" fill="rgb(255,255,255)"/><path d=" M 114.325 112.416 Q 105.879 110.493 104.004 104.596" fill="none" vector-effect="non-scaling-stroke" stroke-width="1" stroke="rgb(255,255,255)" stroke-linejoin="miter" stroke-linecap="square" stroke-miterlimit="3"/><path d=" M 105.549 115.692 Q 94.844 112.275 94.409 104.893" fill="none" vector-effect="non-scaling-stroke" stroke-width="1" stroke="rgb(255,255,255)" stroke-linejoin="miter" stroke-linecap="square" stroke-miterlimit="3"/><path d=" M 100.854 119.282 Q 91.535 118.293 87.646 111.852" fill="none" vector-effect="non-scaling-stroke" stroke-width="1" stroke="rgb(255,255,255)" stroke-linejoin="miter" stroke-linecap="square" stroke-miterlimit="3"/></g></g></g></g></svg>