<?xml version="1.0" encoding="UTF-8" standalone="no"?>
<!-- Generator: Gravit.io -->
<svg xmlns="http://www.w3.org/2000/svg" xmlns:xlink="http://www.w3.org/1999/xlink" style="isolation:isolate" viewBox="0 0 250 250" width="250pt" height="250pt"><defs><clipPath id="_clipPath_rWAQnXL71xNe5QgGvej9QH72Q9YUWKnC"><rect width="250" height="250"/></clipPath></defs><g clip-path="url(#_clipPath_rWAQnXL71xNe5QgGvej9QH72Q9YUWKnC)"><rect width="250" height="250" style="fill:rgb(0,0,0)" fill-opacity="0"/><g><mask id="_mask_jyihPpK4nkECjB18LLXX17ptSPlT3t2D"><circle vector-effect="non-scaling-stroke" cx="121.41592136712046" cy="152.64053824469988" r="82.06906479977062" fill="white" stroke="none"/></mask><circle vector-effect="non-scaling-stroke" cx="121.41592136712046" cy="152.64053824469988" r="82.06906479977062" fill="rgb(245,206,133)"/><circle vector-effect="non-scaling-stroke" cx="121.41592136712046" cy="152.64053824469988" r="82.06906479977062" fill="rgb(245,206,133)" mask="url(#_mask_jyihPpK4nkECjB18LLXX17ptSPlT3t2D)" stroke-width="4" stroke="rgb(150,122,68)" stroke-linejoin="miter" stroke-linecap="square" stroke-miterlimit="3"/><g><path d=" M 87.735 39.226 C 90.672 34.715 60.464 52.319 59.521 63.586 C 58.579 74.853 56.603 84.943 60.462 94.779 Q 64.321 104.615 88.724 99.839 Q 79.748 73.049 81.158 62.825 C 82.569 52.601 84.799 43.737 87.735 39.226 Z " fill="rgb(233,28,39)"/><path d=" M 81.158 62.825 Q 79.748 73.049 88.724 99.839 Q 64.321 104.615 60.462 94.779 C 56.603 84.943 58.579 74.853 59.521 63.586 C 60.464 52.319 90.672 34.715 87.735 39.226 C 84.799 43.737 82.569 52.601 81.158 62.825 Z  M 86.17 39.948 C 85.627 40.933 85.153 41.968 84.75 43.03 C 84.041 44.861 83.428 46.732 82.928 48.626 C 82.334 50.822 81.83 53.039 81.404 55.271 C 80.933 57.736 80.528 60.21 80.188 62.693 C 80.057 63.609 79.991 64.535 79.984 65.45 C 79.977 66.729 80.029 67.997 80.143 69.265 C 80.224 70.223 80.332 71.172 80.471 72.12 C 80.637 73.298 80.822 74.469 81.043 75.628 C 81.197 76.467 81.363 77.313 81.535 78.146 C 81.74 79.103 81.957 80.066 82.189 81.013 C 82.838 83.747 83.552 86.459 84.343 89.154 C 85.321 92.481 86.344 95.792 87.436 99.089 C 84.292 99.662 81.124 100.076 77.934 100.332 C 75.76 100.498 73.572 100.472 71.398 100.244 C 70.084 100.104 68.785 99.855 67.509 99.495 C 66.613 99.242 65.763 98.881 64.952 98.423 C 64.512 98.17 64.093 97.888 63.696 97.578 C 63.352 97.302 63.027 96.989 62.726 96.656 C 62.447 96.327 62.192 95.979 61.962 95.612 C 61.738 95.232 61.542 94.843 61.38 94.432 L 60.938 93.235 C 60.306 91.366 59.848 89.459 59.572 87.51 C 59.296 85.561 59.16 83.595 59.148 81.627 C 59.154 79.592 59.234 77.562 59.389 75.537 C 59.562 73.413 59.75 71.304 59.976 69.183 C 60.167 67.353 60.342 65.508 60.499 63.67 C 60.543 63.136 60.653 62.61 60.829 62.094 C 61.022 61.508 61.258 60.929 61.548 60.383 C 62.256 59.061 63.091 57.809 64.058 56.667 C 65.181 55.316 66.38 54.033 67.65 52.839 C 69.022 51.548 70.435 50.315 71.907 49.135 C 74.695 46.89 77.623 44.815 80.681 42.934 C 81.875 42.181 83.106 41.478 84.354 40.821 C 84.947 40.493 85.552 40.202 86.17 39.948 Z " fill-rule="evenodd" fill="rgb(49,49,49)"/><path d=" M 86.1 39.35 C 82.724 38.76 110.822 30.088 119.47 38.059 C 128.119 46.029 144.501 65.677 142.889 68.31 C 141.278 70.944 131.506 81.5 129.109 82.908 C 128.184 80.113 117.397 57.605 111.122 51.445 C 104.846 45.285 89.477 39.941 86.1 39.35 Z " fill="rgb(73,97,179)"/><path d=" M 86.1 39.35 C 82.724 38.76 110.822 30.088 119.47 38.059 C 128.119 46.029 144.501 65.677 142.889 68.31 C 141.278 70.944 131.506 81.5 129.109 82.908 C 128.184 80.113 117.397 57.605 111.122 51.445 C 104.846 45.285 89.477 39.941 86.1 39.35 Z  M 88.389 38.915 C 88.515 38.862 88.645 38.817 88.779 38.782 C 90.956 38.054 93.173 37.468 95.424 37.016 C 98.289 36.416 101.19 36.01 104.105 35.797 C 105.575 35.696 107.058 35.664 108.526 35.709 C 109.907 35.743 111.283 35.882 112.641 36.121 C 113.853 36.327 115.026 36.661 116.163 37.131 C 117.129 37.525 118.028 38.088 118.807 38.785 C 121.086 40.917 123.278 43.131 125.369 45.442 C 127.84 48.131 130.239 50.886 132.555 53.701 C 134.689 56.257 136.718 58.9 138.649 61.619 C 139.381 62.664 140.083 63.741 140.733 64.846 C 141.193 65.58 141.575 66.362 141.875 67.172 C 141.948 67.385 142.006 67.614 142.024 67.847 C 141.757 68.25 141.479 68.646 141.172 69.022 C 140.672 69.65 140.166 70.26 139.647 70.863 C 138.33 72.405 136.972 73.92 135.58 75.394 C 134.21 76.872 132.802 78.3 131.363 79.697 C 130.809 80.23 130.253 80.753 129.668 81.255 C 129.637 81.286 129.597 81.321 129.557 81.355 C 129.436 81.065 129.306 80.777 129.173 80.481 C 128.663 79.359 128.141 78.231 127.612 77.116 C 126.116 73.999 124.554 70.904 122.924 67.854 C 121.149 64.5 119.26 61.207 117.244 57.998 C 116.362 56.579 115.422 55.201 114.438 53.848 C 113.646 52.75 112.77 51.713 111.815 50.744 C 110.92 49.89 109.963 49.098 108.947 48.378 C 107.848 47.594 106.705 46.866 105.529 46.191 C 103.062 44.777 100.521 43.513 97.91 42.408 C 95.605 41.405 93.25 40.503 90.866 39.693 C 90.044 39.415 89.216 39.15 88.389 38.915 Z " fill-rule="evenodd" fill="rgb(49,49,49)"/><path d=" M 130.034 83.124 C 125.529 70.228 117.503 55.259 109.022 47.777 Q 100.542 40.296 86.1 39.35 Q 77.63 54.858 79.482 67.572 C 81.335 80.286 85.673 97.207 87.647 100.209 C 92.143 99.6 112.742 96.703 130.034 83.124 Z " fill="rgb(82,208,137)"/><path d=" M 87.647 100.209 C 85.673 97.207 81.335 80.286 79.482 67.572 Q 77.63 54.858 86.1 39.35 Q 100.542 40.296 109.022 47.777 C 117.503 55.259 125.529 70.228 130.034 83.124 C 112.742 96.703 92.143 99.6 87.647 100.209 Z  M 88.172 99.148 C 88.068 98.935 87.96 98.712 87.874 98.493 C 87.586 97.803 87.325 97.104 87.095 96.405 C 86.453 94.509 85.868 92.594 85.356 90.653 C 84.688 88.226 84.076 85.781 83.514 83.328 C 82.267 78.071 81.253 72.765 80.455 67.425 C 80.171 65.51 80.072 63.563 80.162 61.622 C 80.254 59.443 80.535 57.272 80.993 55.132 C 81.517 52.732 82.224 50.383 83.118 48.094 C 84.139 45.45 85.329 42.872 86.658 40.371 C 88.941 40.552 91.209 40.872 93.444 41.339 C 95.478 41.76 97.466 42.353 99.397 43.111 C 101.088 43.775 102.725 44.582 104.282 45.52 C 105.733 46.391 107.104 47.393 108.372 48.514 C 109.448 49.472 110.485 50.496 111.444 51.567 C 112.504 52.748 113.514 53.968 114.466 55.228 C 116.549 57.998 118.45 60.904 120.166 63.904 C 121.98 67.068 123.642 70.304 125.153 73.614 C 126.518 76.62 127.766 79.678 128.875 82.783 C 125.31 85.513 121.497 87.912 117.501 89.96 C 113.751 91.882 109.875 93.525 105.891 94.884 C 100.129 96.865 94.197 98.291 88.172 99.148 Z " fill-rule="evenodd" fill="rgb(49,49,49)"/><path d=" M 59.705 90.4 C 55.902 98.509 52.626 103.364 52.871 105.537 C 53.116 107.709 61.955 113.979 82.047 113.342 C 102.138 112.706 133.508 103.622 143.18 95.284 C 152.851 86.945 157.382 78.395 156.618 76.902 Q 155.854 75.409 139.316 63.039 Q 129.434 77.713 122.391 81.644 C 115.448 85.519 96.596 93.456 88.24 94.588 C 80.543 95.631 66.236 94.722 59.705 90.4 Z " fill="rgb(43,65,135)"/><path d=" M 88.24 94.588 C 96.596 93.456 115.448 85.519 122.391 81.644 Q 129.434 77.713 139.316 63.039 Q 155.854 75.409 156.618 76.902 C 157.382 78.395 152.851 86.945 143.18 95.284 C 133.508 103.622 102.138 112.706 82.047 113.342 C 61.955 113.979 53.116 107.709 52.871 105.537 C 52.626 103.364 55.902 98.509 59.705 90.4 C 66.236 94.722 80.543 95.631 88.24 94.588 Z  M 88.012 92.903 C 89.154 92.732 90.279 92.502 91.395 92.212 C 92.81 91.854 94.216 91.454 95.605 91.011 C 98.852 89.971 102.057 88.82 105.219 87.559 C 108.38 86.315 111.508 84.994 114.593 83.588 C 115.914 82.991 117.226 82.378 118.522 81.738 C 119.553 81.236 120.567 80.707 121.564 80.153 C 122.11 79.846 122.638 79.514 123.149 79.148 C 123.831 78.662 124.487 78.142 125.118 77.597 C 125.587 77.188 126.055 76.77 126.507 76.335 C 127.044 75.815 127.572 75.279 128.084 74.742 C 128.459 74.341 128.825 73.949 129.192 73.54 C 129.592 73.088 129.993 72.628 130.393 72.168 C 131.561 70.787 132.677 69.381 133.76 67.932 C 135.541 65.538 137.254 63.092 138.89 60.595 C 142.197 63.058 145.486 65.546 148.759 68.052 C 150.242 69.185 151.707 70.344 153.165 71.512 C 153.932 72.125 154.699 72.756 155.457 73.395 C 155.866 73.745 156.275 74.094 156.667 74.46 C 157.017 74.776 157.341 75.108 157.656 75.44 C 157.861 75.654 158.022 75.901 158.15 76.156 C 158.338 76.548 158.423 76.974 158.406 77.401 C 158.38 77.946 158.278 78.483 158.099 78.994 C 157.903 79.599 157.665 80.196 157.383 80.767 C 156.608 82.335 155.713 83.835 154.699 85.258 C 153.361 87.15 151.903 88.965 150.335 90.687 C 148.443 92.775 146.424 94.743 144.285 96.576 C 143.586 97.181 142.844 97.743 142.077 98.263 C 141.225 98.843 140.339 99.397 139.444 99.908 C 137.373 101.084 135.242 102.149 133.052 103.095 C 130.555 104.186 128.024 105.192 125.45 106.104 C 122.664 107.092 119.843 108.004 116.996 108.839 C 111.09 110.578 105.082 112.001 99.023 113.1 C 96.108 113.629 93.185 114.072 90.245 114.421 C 87.543 114.745 84.825 114.95 82.106 115.043 C 81.152 115.078 80.197 115.095 79.243 115.095 C 75.212 115.12 71.198 114.796 67.226 114.132 C 65.65 113.859 64.09 113.518 62.548 113.092 C 61.252 112.742 59.974 112.316 58.73 111.822 C 57.698 111.421 56.701 110.953 55.73 110.424 C 54.954 110.007 54.213 109.53 53.514 108.993 C 52.952 108.575 52.44 108.081 51.997 107.535 C 51.801 107.288 51.631 107.024 51.486 106.743 C 51.332 106.436 51.23 106.104 51.179 105.771 C 51.179 105.72 51.17 105.677 51.17 105.626 L 51.153 105.388 C 51.153 105.337 51.153 105.294 51.153 105.243 C 51.17 104.646 51.281 104.058 51.469 103.496 C 51.665 102.865 51.903 102.252 52.176 101.655 C 52.5 100.931 52.841 100.223 53.199 99.516 C 53.625 98.681 54.059 97.845 54.494 97.019 C 56.088 93.976 57.613 90.891 59.054 87.772 C 60.076 88.667 61.227 89.417 62.471 89.988 C 63.187 90.32 63.928 90.619 64.687 90.883 C 66.408 91.462 68.172 91.914 69.962 92.238 C 71.905 92.596 73.857 92.86 75.817 93.03 C 77.751 93.192 79.686 93.278 81.62 93.278 C 83.76 93.295 85.89 93.167 88.012 92.903 Z " fill-rule="evenodd" fill="rgb(49,49,49)"/><path d=" M 151.872 77.128 C 151.817 77.461 151.695 77.754 151.508 78.005 C 151.268 78.325 150.97 78.499 150.615 78.529 C 150.259 78.559 149.888 78.506 149.504 78.373 C 149.12 78.239 148.751 78.062 148.4 77.84 C 148.048 77.619 147.755 77.421 147.521 77.245 C 146.83 76.729 146.325 76.244 146.007 75.79 C 145.69 75.337 145.481 74.911 145.381 74.513 C 145.28 74.114 145.253 73.74 145.298 73.392 C 145.343 73.044 145.37 72.712 145.38 72.396 C 145.391 72.08 145.347 71.778 145.25 71.489 C 145.154 71.202 144.919 70.918 144.546 70.639 C 144.297 70.453 144.079 70.327 143.891 70.261 C 143.704 70.196 143.545 70.17 143.415 70.185 C 143.286 70.2 143.175 70.24 143.084 70.305 C 142.992 70.369 142.919 70.439 142.863 70.513 C 142.66 70.784 142.546 71.111 142.518 71.493 C 142.491 71.875 142.508 72.284 142.57 72.72 L 140.733 71.159 C 140.769 70.736 140.839 70.341 140.942 69.973 C 141.045 69.605 141.206 69.273 141.425 68.98 C 141.557 68.804 141.726 68.649 141.933 68.517 C 142.14 68.384 142.396 68.316 142.701 68.311 C 143.006 68.306 143.371 68.387 143.795 68.554 C 144.219 68.722 144.714 69.017 145.28 69.44 C 145.653 69.719 146.122 70.08 146.685 70.522 C 147.248 70.964 147.868 71.453 148.544 71.988 C 149.221 72.523 149.944 73.089 150.715 73.686 C 151.485 74.283 152.257 74.871 153.03 75.449 L 152.193 76.569 C 151.98 76.394 151.745 76.203 151.489 75.999 C 151.232 75.795 150.914 75.543 150.536 75.243 C 150.157 74.943 149.682 74.569 149.113 74.122 C 148.542 73.675 147.828 73.118 146.97 72.452 C 147.084 72.644 147.15 72.837 147.168 73.029 C 147.186 73.22 147.197 73.416 147.198 73.616 C 147.198 73.816 147.202 74.021 147.206 74.231 C 147.21 74.442 147.248 74.657 147.321 74.876 C 147.393 75.096 147.508 75.317 147.666 75.538 C 147.824 75.76 148.054 75.984 148.358 76.211 C 148.607 76.397 148.822 76.527 149.004 76.6 C 149.186 76.674 149.349 76.715 149.494 76.724 C 149.639 76.732 149.758 76.709 149.852 76.654 C 149.946 76.6 150.024 76.533 150.084 76.453 C 150.163 76.346 150.215 76.22 150.237 76.074 C 150.26 75.929 150.261 75.77 150.24 75.596 L 151.872 77.128 Z " fill="rgb(255,255,255)"/><path d=" M 82.974 39.805 C 82.584 38.67 83.714 37.252 85.497 36.639 C 87.279 36.027 89.043 36.45 89.433 37.585 C 89.823 38.719 88.692 40.137 86.91 40.75 C 85.127 41.363 83.363 40.939 82.974 39.805 Z " fill="rgb(49,49,49)"/><path d=" M 81.897 36.673 C 81.507 35.539 82.638 34.12 84.421 33.508 C 86.203 32.895 87.967 33.319 88.357 34.453 C 88.746 35.587 87.616 37.006 85.833 37.618 C 84.051 38.231 82.287 37.807 81.897 36.673 Z " fill="rgb(49,49,49)"/><path d=" M 80.781 33.425 C 80.391 32.291 81.522 30.872 83.304 30.26 C 85.087 29.647 86.851 30.071 87.24 31.205 C 87.63 32.339 86.5 33.758 84.717 34.37 C 82.934 34.983 81.171 34.559 80.781 33.425 Z " fill="rgb(49,49,49)"/><g><path d=" M 83.23 29.195 Q 67.359 32.121 58.709 35.678 C 50.058 39.234 45.37 41.867 45.654 42.693 C 45.938 43.52 56.611 40.046 59.785 38.809 Q 62.959 37.573 83.23 29.195 Z " fill="rgb(43,65,135)"/><path d=" M 59.965 39.263 C 59.115 39.597 58.255 39.903 57.392 40.199 C 54.961 41.035 52.507 41.806 50.025 42.493 C 49.044 42.778 48.047 43.017 47.043 43.206 C 46.712 43.268 46.383 43.308 46.051 43.308 C 45.918 43.313 45.787 43.295 45.654 43.269 C 45.436 43.209 45.258 43.052 45.184 42.839 C 45.11 42.532 45.194 42.202 45.406 41.974 C 45.605 41.739 45.824 41.529 46.064 41.353 C 46.4 41.093 46.755 40.857 47.122 40.627 C 47.603 40.337 48.094 40.044 48.594 39.778 C 49.971 39.046 51.361 38.35 52.779 37.707 C 54.67 36.839 56.587 36.015 58.525 35.224 C 59.279 34.913 60.04 34.62 60.813 34.334 C 61.719 34.012 62.638 33.696 63.554 33.402 C 66.158 32.559 68.798 31.818 71.455 31.185 C 76.777 29.916 82.133 28.833 87.527 27.954 L 63.131 37.999 C 62.077 38.434 61.029 38.856 59.965 39.263 Z  M 46.451 42.299 C 46.516 42.246 46.581 42.193 46.645 42.139 C 46.966 41.894 47.296 41.677 47.638 41.466 C 48.101 41.182 48.576 40.905 49.067 40.643 C 50.417 39.92 51.791 39.24 53.182 38.606 C 55.073 37.738 56.97 36.92 58.899 36.133 C 59.635 35.828 60.387 35.539 61.141 35.259 C 62.047 34.937 62.947 34.627 63.854 34.337 C 66.44 33.5 69.043 32.771 71.681 32.145 C 73.941 31.596 76.208 31.097 78.484 30.626 L 62.756 37.09 C 61.711 37.522 60.663 37.944 59.609 38.348 C 58.777 38.675 57.927 38.978 57.082 39.268 C 54.66 40.101 52.225 40.865 49.765 41.555 C 48.802 41.834 47.833 42.063 46.857 42.243 C 46.721 42.269 46.582 42.286 46.451 42.299 Z " fill-rule="evenodd" fill="rgb(0,0,0)"/><path d=" M 82.718 29.403 Q 98.589 26.477 107.24 22.921 C 115.89 19.364 120.579 16.731 120.295 15.905 C 120.011 15.078 109.337 18.552 106.163 19.789 Q 102.989 21.026 82.718 29.403 Z " fill="rgb(43,65,135)"/><path d=" M 105.987 19.327 C 106.832 19.006 107.691 18.7 108.554 18.403 C 110.982 17.558 113.439 16.797 115.918 16.101 C 116.899 15.815 117.899 15.586 118.912 15.393 C 119.234 15.335 119.563 15.294 119.904 15.291 C 120.038 15.287 120.168 15.304 120.293 15.334 C 120.507 15.385 120.689 15.551 120.762 15.764 C 120.836 16.071 120.752 16.4 120.537 16.619 C 120.35 16.86 120.129 17.061 119.888 17.237 C 119.543 17.501 119.192 17.746 118.821 17.967 C 118.343 18.266 117.849 18.55 117.352 18.824 C 115.984 19.554 114.582 20.243 113.173 20.883 C 111.273 21.754 109.36 22.588 107.431 23.375 C 106.667 23.69 105.906 23.982 105.139 24.256 C 104.227 24.591 103.318 24.903 102.393 25.2 C 99.785 26.034 97.154 26.773 94.488 27.409 C 89.178 28.684 83.811 29.761 78.419 30.648 C 86.549 27.284 94.676 23.941 102.816 20.604 C 103.87 20.169 104.927 19.743 105.987 19.327 Z  M 119.501 16.291 C 119.43 16.357 119.365 16.41 119.298 16.454 C 118.977 16.699 118.65 16.926 118.317 17.133 C 117.845 17.42 117.37 17.698 116.888 17.957 C 115.539 18.68 114.164 19.36 112.764 19.996 C 110.883 20.861 108.976 21.682 107.056 22.467 C 106.311 22.775 105.56 23.064 104.802 23.335 C 103.908 23.663 102.999 23.975 102.092 24.266 C 99.512 25.091 96.9 25.822 94.265 26.458 C 92.002 26.997 89.738 27.505 87.462 27.977 C 92.704 25.812 97.941 23.659 103.187 21.503 C 104.235 21.081 105.283 20.659 106.343 20.242 C 107.178 19.924 108.02 19.625 108.864 19.334 C 111.283 18.493 113.721 17.738 116.181 17.048 C 117.144 16.769 118.113 16.54 119.098 16.357 C 119.225 16.334 119.361 16.308 119.501 16.291 Z " fill-rule="evenodd" fill="rgb(0,0,0)"/></g><path d=" M 79.744 30.409 C 79.355 29.275 80.485 27.857 82.268 27.244 C 84.05 26.631 85.814 27.055 86.204 28.189 C 86.594 29.324 85.463 30.742 83.681 31.354 C 81.898 31.967 80.134 31.543 79.744 30.409 Z " fill="rgb(49,49,49)"/></g><g><g><mask id="_mask_koaQpEC3YZbfo6ZWkKqP9j0VDsaWTqam"><circle vector-effect="non-scaling-stroke" cx="123.00517670189089" cy="138.08495057875894" r="29.21598891025309" fill="white" stroke="none"/></mask><circle vector-effect="non-scaling-stroke" cx="123.00517670189089" cy="138.08495057875894" r="29.21598891025309" fill="rgb(255,255,255)"/><circle vector-effect="non-scaling-stroke" cx="123.00517670189089" cy="138.08495057875894" r="29.21598891025309" fill="rgb(255,255,255)" mask="url(#_mask_koaQpEC3YZbfo6ZWkKqP9j0VDsaWTqam)" stroke-width="4" stroke="rgb(0,0,0)" stroke-linejoin="miter" stroke-linecap="square" stroke-miterlimit="3"/><ellipse vector-effect="non-scaling-stroke" cx="129.46817803912046" cy="127.305866618761" rx="11.405565370683128" ry="10.779083959997841" fill="rgb(0,0,0)"/><path d=" M 114.325 112.416 Q 105.879 110.493 104.004 104.596" fill="none" vector-effect="non-scaling-stroke" stroke-width="1" stroke="rgb(0,0,0)" stroke-linejoin="miter" stroke-linecap="square" stroke-miterlimit="3"/><path d=" M 105.549 115.692 Q 94.844 112.275 94.409 104.893" fill="none" vector-effect="non-scaling-stroke" stroke-width="1" stroke="rgb(0,0,0)" stroke-linejoin="miter" stroke-linecap="square" stroke-miterlimit="3"/><path d=" M 100.854 119.282 Q 91.535 118.293 87.646 111.852" fill="none" vector-effect="non-scaling-stroke" stroke-width="1" stroke="rgb(0,0,0)" stroke-linejoin="miter" stroke-linecap="square" stroke-miterlimit="3"/></g><g><mask id="_mask_6jMTOuCkcTH8Be9BuKZx5qUVdsRnFXiF"><circle vector-effect="non-scaling-stroke" cx="181.43715452239707" cy="125.55532236505354" r="29.21598891025309" fill="white" stroke="none"/></mask><circle vector-effect="non-scaling-stroke" cx="181.43715452239707" cy="125.55532236505354" r="29.21598891025309" fill="rgb(255,255,255)"/><circle vector-effect="non-scaling-stroke" cx="181.43715452239707" cy="125.55532236505354" r="29.21598891025309" fill="rgb(255,255,255)" mask="url(#_mask_6jMTOuCkcTH8Be9BuKZx5qUVdsRnFXiF)" stroke-width="4" stroke="rgb(0,0,0)" stroke-linejoin="miter" stroke-linecap="square" stroke-miterlimit="3"/><ellipse vector-effect="non-scaling-stroke" cx="187.9001558596267" cy="114.77623840505565" rx="11.40556537068312" ry="10.779083959997834" fill="rgb(0,0,0)"/><path d=" M 180.496 97.02 Q 188.147 92.959 188.418 86.778" fill="none" vector-effect="non-scaling-stroke" stroke-width="1" stroke="rgb(0,0,0)" stroke-linejoin="miter" stroke-linecap="square" stroke-miterlimit="3"/><path d=" M 189.823 97.893 Q 199.265 91.8 197.758 84.56" fill="none" vector-effect="non-scaling-stroke" stroke-width="1" stroke="rgb(0,0,0)" stroke-linejoin="miter" stroke-linecap="square" stroke-miterlimit="3"/><path d=" M 189.823 97.893 Q 199.265 91.8 197.758 84.56" fill="none" vector-effect="non-scaling-stroke" stroke-width="1" stroke="rgb(0,0,0)" stroke-linejoin="miter" stroke-linecap="square" stroke-miterlimit="3"/><path d=" M 195.292 100.134 Q 204.03 96.746 206.103 89.514" fill="none" vector-effect="non-scaling-stroke" stroke-width="1" stroke="rgb(0,0,0)" stroke-linejoin="miter" stroke-linecap="square" stroke-miterlimit="3"/></g></g><g><path d=" M 133.058 177.155 Q 140.889 215.684 163.129 209.732 Q 185.369 203.781 188.502 162.433 Q 161.876 179.348 133.058 177.155 Z " fill="rgb(223,188,136)"/><path d=" M 142.321 201.876 Q 164.294 196.84 171.273 205.034 Q 171.519 205.322 171.721 205.602 Q 167.857 208.467 163.129 209.732 Q 150.344 213.154 142.321 201.876 Z " fill-rule="evenodd" fill="rgb(217,116,103)"/><path d=" M 148.069 207.97 C 151.127 209.442 153.123 211.086 159.702 210.543 C 169.769 209.711 156.869 218.408 157.705 224.36 C 154.65 230.35 129.043 235.636 131.275 232.582 C 133.389 222.715 144.781 215.512 148.069 207.97 Z " fill="rgb(118,163,255)" fill-opacity="0.29"/><path d=" M 189.45 160.825 C 189.032 167.574 188.08 174.274 186.61 180.889 C 185.691 184.999 184.338 189.008 182.567 192.834 C 181.431 195.29 180.078 197.629 178.507 199.834 C 177.204 201.672 175.701 203.342 174.013 204.812 C 172.493 206.166 170.806 207.335 169.018 208.304 C 167.214 209.256 165.309 210.008 163.338 210.543 C 161.317 211.077 159.212 211.361 157.107 211.345 C 155.302 211.345 153.531 211.044 151.827 210.476 C 150.123 209.891 148.52 209.056 147.066 207.97 C 145.362 206.7 143.825 205.197 142.489 203.509 C 141.937 202.791 141.403 202.056 140.902 201.288 C 140.35 200.419 139.816 199.533 139.315 198.615 C 138.947 197.946 138.596 197.261 138.279 196.576 C 137.911 195.808 137.56 195.039 137.226 194.254 C 136.241 191.915 135.389 189.526 134.67 187.104 C 133.618 183.529 132.732 179.887 132.031 176.228 C 136.992 176.679 142.004 176.679 146.983 176.245 C 151.543 175.844 156.071 175.059 160.515 173.923 C 165.159 172.72 169.703 171.15 174.08 169.212 C 179.426 166.839 184.572 164.033 189.45 160.825 Z  M 187.529 164.016 C 187.044 169.579 186.192 175.076 184.972 180.522 C 184.087 184.515 182.767 188.407 181.047 192.133 C 179.961 194.488 178.658 196.743 177.137 198.865 C 175.918 200.586 174.498 202.173 172.911 203.56 C 171.474 204.829 169.903 205.915 168.233 206.817 C 166.546 207.719 164.758 208.438 162.92 208.922 C 161.016 209.44 159.061 209.691 157.107 209.674 C 155.503 209.674 153.899 209.407 152.362 208.889 C 150.825 208.371 149.372 207.619 148.069 206.633 C 146.481 205.447 145.045 204.044 143.808 202.474 C 143.274 201.789 142.773 201.104 142.305 200.369 C 141.77 199.55 141.252 198.698 140.785 197.813 C 140.434 197.178 140.1 196.51 139.782 195.841 C 139.431 195.106 139.081 194.354 138.763 193.603 C 137.794 191.331 136.976 189.008 136.274 186.636 C 135.439 183.796 134.72 180.939 134.102 178.066 C 138.446 178.333 142.789 178.283 147.116 177.899 C 151.777 177.498 156.405 176.713 160.932 175.543 C 165.66 174.324 170.288 172.703 174.765 170.732 C 179.159 168.777 183.435 166.539 187.529 164.016 Z " fill-rule="evenodd" fill="rgb(0,0,0)"/><path d=" M 95.669 165.128 Q 133.482 151.289 135.431 167.272 Q 137.381 183.255 97.228 180.136" fill="rgb(245,206,133)"/><path d=" M 186.61 157.682 Q 171.906 160.594 183.65 149.726 Q 195.394 138.858 200.782 152.326" fill="rgb(245,206,133)"/><path d=" M 177.068 188.159 C 182.347 187.782 185.509 185.5 187.693 183.827 C 189.878 182.153 188.455 176.029 186.029 164.621 Q 177.511 169.175 169.767 172.108 Q 172.793 188.465 177.068 188.159 Z " fill="rgb(255,255,255)" vector-effect="non-scaling-stroke" stroke-width="1" stroke="rgb(0,0,0)" stroke-linejoin="miter" stroke-linecap="round" stroke-miterlimit="3"/></g></g></g></svg>