<?xml version="1.0" encoding="UTF-8" standalone="no"?>
<!-- Generator: Gravit.io -->
<svg xmlns="http://www.w3.org/2000/svg" xmlns:xlink="http://www.w3.org/1999/xlink" style="isolation:isolate" viewBox="0 0 250 250" width="250pt" height="250pt"><defs><clipPath id="_clipPath_1u3zIuiem6NurMIltRI0JXy321NgM8UV"><rect width="250" height="250"/></clipPath></defs><g clip-path="url(#_clipPath_1u3zIuiem6NurMIltRI0JXy321NgM8UV)"><rect width="250" height="250" style="fill:rgb(0,0,0)" fill-opacity="0"/><path d="M 10.34 8 L 239.66 8 C 240.951 8 242 9.049 242 10.34 L 242 239.66 C 242 240.951 240.951 242 239.66 242 L 10.34 242 C 9.049 242 8 240.951 8 239.66 L 8 10.34 C 8 9.049 9.049 8 10.34 8 Z" style="stroke:none;fill:#0179B2;stroke-miterlimit:10;"/><g><g><g><path d=" M 33.5 49.5 L 63 49.5 L 63 150 L 25.5 150 L 25.5 57.5 L 25.5 57.5 C 25.5 53.085 29.085 49.5 33.5 49.5 Z " fill-rule="evenodd" fill="rgb(192,192,192)"/><rect x="63" y="49.5" width="37.5" height="100.5" transform="matrix(1,0,0,1,0,0)" fill="rgb(192,192,0)"/><rect x="100.5" y="49.5" width="36.5" height="100.5" transform="matrix(1,0,0,1,0,0)" fill="rgb(0,192,192)"/><rect x="137" y="49.5" width="37.5" height="100.5" transform="matrix(1,0,0,1,0,0)" fill="rgb(0,192,0)"/><rect x="174.5" y="49.5" width="37.5" height="100.5" transform="matrix(1,0,0,1,0,0)" fill="rgb(192,0,192)"/><rect x="25.5" y="150" width="37.5" height="12.5" transform="matrix(1,0,0,1,0,0)" fill="rgb(0,0,192)"/><rect x="72" y="162.5" width="46.5" height="38" transform="matrix(1,0,0,1,0,0)" fill="rgb(255,255,255)"/><rect x="118.5" y="162.5" width="46.5" height="38" transform="matrix(1,0,0,1,0,0)" fill="rgb(50,0,106)"/><rect x="165" y="162.5" width="46.5" height="38" transform="matrix(1,0,0,1,0,0)" fill="rgb(19,19,19)"/><rect x="63" y="150" width="37.5" height="12.5" transform="matrix(1,0,0,1,0,0)" fill="rgb(19,19,19)"/><rect x="100.5" y="150" width="36.5" height="12.5" transform="matrix(1,0,0,1,0,0)" fill="rgb(192,0,192)"/><rect x="137" y="150" width="37.5" height="12.5" transform="matrix(1,0,0,1,0,0)" fill="rgb(19,19,19)"/><rect x="174.5" y="150" width="37.5" height="12.5" transform="matrix(1,0,0,1,0,0)" fill="rgb(0,192,192)"/><path d=" M 33.5 200.5 L 72 200.5 L 72 162.5 L 25.5 162.5 L 25.5 162.5 L 25.5 192.5 C 25.5 196.915 29.085 200.5 33.5 200.5 Z " fill-rule="evenodd" fill="rgb(0,33,76)"/></g><defs><linearGradient id="_lgradient_0" x1="0.030141843971631305" y1="0.3345280764635603" x2="0.7805851063829786" y2="0.42413381123058547"><stop offset="0%" style="stop-color:rgba(1,121,178,0)"/><stop offset="100%" style="stop-color:#0179B2"/></linearGradient></defs><path d="M 32.5 49.5 L 219 49.5 C 222.863 49.5 226 52.637 226 56.5 L 226 197 C 226 200.863 222.863 204 219 204 L 32.5 204 C 28.637 204 25.5 200.863 25.5 197 L 25.5 56.5 C 25.5 52.637 28.637 49.5 32.5 49.5 Z" style="stroke:none;fill:url(#_lgradient_0);stroke-miterlimit:10;"/></g><g><path d=" M 163.935 139.399 C 167.513 145.558 167.663 153.126 164.333 159.423 C 158.033 171.115 149.463 176.266 125.974 178.745 C 135.828 160.433 117.67 155.282 126.42 139.025 C 129.827 132.764 136.229 128.709 143.345 128.303" fill="rgb(249,227,174)"/><path d=" M 208.827 46.264 L 178.83 114.313 L 178.463 115.164 L 155.826 102.98 L 196.6 39.706 C 198.589 36.711 202.53 35.721 205.698 37.421 C 208.866 39.12 210.22 42.951 208.825 46.264 L 208.827 46.264 Z " fill="rgb(205,161,167)"/><path d=" M 147.072 139.293 C 147.072 139.293 136.169 152.255 126.148 156.967 C 126.148 156.967 119.853 149.275 126.928 138.331 C 134.012 127.388 140.821 128.992 140.821 128.992 L 150.397 134.937 L 147.072 139.293 Z " fill="rgb(250,239,222)"/><path d=" M 208.827 46.264 L 178.83 114.313 L 166.71 107.79 L 204.842 36.941 C 206.653 37.59 208.112 38.964 208.868 40.733 C 209.624 42.502 209.609 44.506 208.827 46.264 Z " fill="rgb(196,147,156)"/><path d=" M 163.935 139.399 L 143.408 128.372 C 141.595 128.49 139.804 128.839 138.08 129.412 L 152.702 133.818 C 156.177 139.892 154.427 145.006 152.108 151.902 C 148.323 163.441 142.524 172.685 127.442 175.603 C 127.009 176.669 126.52 177.715 125.968 178.732 C 149.432 176.164 158.053 171.091 164.323 159.399 C 167.649 153.11 167.503 145.553 163.935 139.399 Z " fill="rgb(246,211,151)"/><path d=" M 180.094 122.55 L 178.022 127.649 L 174.155 137.136 L 140.004 118.807 L 145.772 110.361 L 148.886 105.823 C 150.732 103.11 154.326 102.224 157.221 103.768 L 177.192 114.514 C 180.054 116.072 181.3 119.523 180.094 122.55 Z " fill="rgb(172,183,208)"/><path d=" M 136.093 121.564 C 137.215 119.479 139.815 118.699 141.899 119.82 L 172.105 136.07 C 174.19 137.193 174.97 139.792 173.848 141.877 C 172.724 143.963 170.122 144.744 168.034 143.622 L 137.837 127.372 C 135.752 126.25 134.972 123.65 136.094 121.566 L 136.093 121.564 Z " fill="rgb(172,183,208)"/><path d=" M 180.094 122.55 C 179.559 123.832 178.508 124.828 177.199 125.293 C 175.89 125.758 174.446 125.649 173.222 124.992 L 150.605 112.824 C 149.383 112.163 148.497 111.018 148.163 109.67 C 147.835 108.316 148.09 106.894 148.864 105.744 C 150.71 103.031 154.303 102.144 157.199 103.687 L 177.168 114.434 C 180.082 115.988 181.347 119.496 180.095 122.552 L 180.094 122.55 Z " fill="rgb(194,205,231)"/><path d=" M 206.769 35.444 C 202.583 33.215 197.388 34.552 194.797 38.524 L 154.638 100.828 C 151.611 100.641 148.711 102.067 147.01 104.577 L 138.383 117.369 C 136.127 117.91 134.336 119.623 133.696 121.854 C 133.063 124.085 133.677 126.485 135.303 128.139 C 130.712 130.162 126.928 133.661 124.554 138.081 C 119.816 146.847 122.322 153.011 124.423 158.465 C 126.532 163.925 128.69 169.248 124.101 177.813 C 123.723 178.511 123.762 179.361 124.204 180.02 C 124.649 180.683 125.422 181.044 126.211 180.966 C 132.581 180.399 138.882 179.259 145.039 177.552 C 154.273 175.27 162.03 169.032 166.239 160.502 C 168.618 156.105 169.461 151.039 168.633 146.108 C 170.864 146.617 173.198 145.902 174.761 144.23 C 176.324 142.557 176.88 140.18 176.222 137.988 L 176.119 137.647 L 181.969 123.353 C 183.132 120.542 182.719 117.326 180.884 114.9 L 210.784 47.126 C 212.675 42.781 210.932 37.712 206.77 35.446 L 206.769 35.444 Z  M 162.442 158.424 C 157.218 168.161 150.747 173.461 129.523 176.185 C 132.772 167.848 130.47 162.044 128.39 156.829 C 126.309 151.612 124.54 147.062 128.3 140.052 C 130.771 135.498 135.072 132.218 140.117 131.038 L 147.592 135.063 L 143.481 139.559 C 142.868 140.437 142.995 141.633 143.779 142.363 C 144.557 143.092 145.758 143.134 146.587 142.456 L 151.422 137.157 L 152.353 137.665 L 150.286 149.477 C 150.148 150.612 150.927 151.656 152.054 151.848 C 153.182 152.04 154.262 151.312 154.508 150.194 L 156.322 139.761 L 163.476 143.612 C 165.255 148.49 164.884 153.892 162.457 158.482 L 162.442 158.424 Z  M 171.918 140.807 C 171.355 141.841 170.063 142.229 169.023 141.676 L 166.948 140.557 L 162.221 138.006 L 145.431 128.998 L 140.706 126.455 L 138.819 125.432 C 138.311 125.165 137.933 124.705 137.768 124.156 C 137.603 123.607 137.666 123.015 137.942 122.512 C 138.503 121.479 139.792 121.091 140.829 121.646 L 171.08 137.925 C 171.57 138.187 171.944 138.643 172.106 139.181 C 172.285 139.742 172.224 140.352 171.936 140.866 L 171.918 140.807 Z  M 178.027 121.694 L 172.906 134.019 L 143.086 118.039 L 150.552 106.976 C 151.784 105.152 154.197 104.556 156.137 105.597 L 176.077 116.326 C 178.039 117.356 178.893 119.712 178.046 121.76 L 178.027 121.694 Z  M 206.848 45.407 L 177.449 112.172 L 158.762 102.114 L 198.411 40.868 C 199.814 38.866 202.493 38.23 204.646 39.389 C 206.799 40.548 207.744 43.134 206.846 45.408 L 206.848 45.407 Z " fill="rgb(255,255,255)"/></g></g><path d="M 11.26 4 L 238.74 4 C 242.747 4 246 7.253 246 11.26 L 246 238.74 C 246 242.747 242.747 246 238.74 246 L 11.26 246 C 7.253 246 4 242.747 4 238.74 L 4 11.26 C 4 7.253 7.253 4 11.26 4 Z" style="fill:none;stroke:#FFFFFF;stroke-width:8;stroke-linecap:square;stroke-miterlimit:2;"/></g></svg>