<?xml version="1.0" encoding="UTF-8" standalone="no"?>
<!-- Generator: Gravit.io -->
<svg xmlns="http://www.w3.org/2000/svg" xmlns:xlink="http://www.w3.org/1999/xlink" style="isolation:isolate" viewBox="0 0 250 250" width="250pt" height="250pt"><defs><clipPath id="_clipPath_QmSzAPzsK1AW4Nctab9J71E1RkantrJr"><rect width="250" height="250"/></clipPath></defs><g clip-path="url(#_clipPath_QmSzAPzsK1AW4Nctab9J71E1RkantrJr)"><rect width="250" height="250" style="fill:rgb(0,0,0)" fill-opacity="0"/><path d="M 10.34 8 L 239.66 8 C 240.951 8 242 9.049 242 10.34 L 242 239.66 C 242 240.951 240.951 242 239.66 242 L 10.34 242 C 9.049 242 8 240.951 8 239.66 L 8 10.34 C 8 9.049 9.049 8 10.34 8 Z" style="stroke:none;fill:#0179B2;stroke-miterlimit:10;"/><g><g><g><path d=" M 33.5 49.5 L 63 49.5 L 63 150 L 25.5 150 L 25.5 57.5 L 25.5 57.5 C 25.5 53.085 29.085 49.5 33.5 49.5 Z " fill-rule="evenodd" fill="rgb(235,235,235)"/><rect x="63" y="49.5" width="37.5" height="100.5" transform="matrix(1,0,0,1,0,0)" fill="rgb(235,235,235)" fill-opacity="0.59"/><rect x="100.5" y="49.5" width="36.5" height="100.5" transform="matrix(1,0,0,1,0,0)" fill="rgb(235,235,235)" fill-opacity="0.81"/><rect x="137" y="49.5" width="37.5" height="100.5" transform="matrix(1,0,0,1,0,0)" fill="rgb(235,235,235)" fill-opacity="0.71"/><rect x="174.5" y="49.5" width="37.5" height="100.5" transform="matrix(1,0,0,1,0,0)" fill="rgb(235,235,235)" fill-opacity="0.65"/><rect x="25.5" y="150" width="37.5" height="12.5" transform="matrix(1,0,0,1,0,0)" fill="rgb(235,235,235)" fill-opacity="0.48"/><rect x="72" y="162.5" width="46.5" height="38" transform="matrix(1,0,0,1,0,0)" fill="rgb(235,235,235)"/><rect x="118.5" y="162.5" width="46.5" height="38" transform="matrix(1,0,0,1,0,0)" fill="rgb(235,235,235)" fill-opacity="0.65"/><rect x="165" y="162.5" width="46.5" height="38" transform="matrix(1,0,0,1,0,0)" fill="rgb(235,235,235)" fill-opacity="0.2"/><rect x="63" y="150" width="37.5" height="12.5" transform="matrix(1,0,0,1,0,0)" fill="rgb(235,235,235)" fill-opacity="0.2"/><rect x="100.5" y="150" width="36.5" height="12.5" transform="matrix(1,0,0,1,0,0)" fill="rgb(235,235,235)" fill-opacity="0.54"/><rect x="137" y="150" width="37.5" height="12.5" transform="matrix(1,0,0,1,0,0)" fill="rgb(235,235,235)" fill-opacity="0.2"/><rect x="174.5" y="150" width="37.5" height="12.5" transform="matrix(1,0,0,1,0,0)" fill="rgb(235,235,235)" fill-opacity="0.65"/><path d=" M 33.5 200.5 L 72 200.5 L 72 162.5 L 25.5 162.5 L 25.5 162.5 L 25.5 192.5 C 25.5 196.915 29.085 200.5 33.5 200.5 Z " fill-rule="evenodd" fill="rgb(235,235,235)" fill-opacity="0.2"/></g><defs><linearGradient id="_lgradient_1" x1="0.030141843971631305" y1="0.3345280764635603" x2="0.7805851063829786" y2="0.42413381123058547"><stop offset="0%" style="stop-color:rgba(1,121,178,0)"/><stop offset="100%" style="stop-color:#0179B2"/></linearGradient></defs><path d="M 32.5 49.5 L 219 49.5 C 222.863 49.5 226 52.637 226 56.5 L 226 197 C 226 200.863 222.863 204 219 204 L 32.5 204 C 28.637 204 25.5 200.863 25.5 197 L 25.5 56.5 C 25.5 52.637 28.637 49.5 32.5 49.5 Z" style="stroke:none;fill:url(#_lgradient_1);stroke-miterlimit:10;"/></g><g><path d=" M 206.769 35.444 C 202.583 33.215 197.388 34.552 194.797 38.524 L 154.638 100.828 C 151.611 100.641 148.711 102.067 147.01 104.577 L 138.383 117.369 C 136.127 117.91 134.336 119.623 133.696 121.854 C 133.063 124.085 133.677 126.485 135.303 128.139 C 130.712 130.162 126.928 133.661 124.554 138.081 C 119.816 146.847 122.322 153.011 124.423 158.465 C 126.532 163.925 128.69 169.248 124.101 177.813 C 123.723 178.511 123.762 179.361 124.204 180.02 C 124.649 180.683 125.422 181.044 126.211 180.966 C 132.581 180.399 138.882 179.259 145.039 177.552 C 154.273 175.27 162.03 169.032 166.239 160.502 C 168.618 156.105 169.461 151.039 168.633 146.108 C 170.864 146.617 173.198 145.902 174.761 144.23 C 176.324 142.557 176.88 140.18 176.222 137.988 L 176.119 137.647 L 181.969 123.353 C 183.132 120.542 182.719 117.326 180.884 114.9 L 210.784 47.126 C 212.675 42.781 210.932 37.712 206.77 35.446 L 206.769 35.444 Z  M 162.442 158.424 C 157.218 168.161 150.747 173.461 129.523 176.185 C 132.772 167.848 130.47 162.044 128.39 156.829 C 126.309 151.612 124.54 147.062 128.3 140.052 C 130.771 135.498 135.072 132.218 140.117 131.038 L 147.592 135.063 L 143.481 139.559 C 142.868 140.437 142.995 141.633 143.779 142.363 C 144.557 143.092 145.758 143.134 146.587 142.456 L 151.422 137.157 L 152.353 137.665 L 150.286 149.477 C 150.148 150.612 150.927 151.656 152.054 151.848 C 153.182 152.04 154.262 151.312 154.508 150.194 L 156.322 139.761 L 163.476 143.612 C 165.255 148.49 164.884 153.892 162.457 158.482 L 162.442 158.424 Z  M 171.918 140.807 C 171.355 141.841 170.063 142.229 169.023 141.676 L 166.948 140.557 L 162.221 138.006 L 145.431 128.998 L 140.706 126.455 L 138.819 125.432 C 138.311 125.165 137.933 124.705 137.768 124.156 C 137.603 123.607 137.666 123.015 137.942 122.512 C 138.503 121.479 139.792 121.091 140.829 121.646 L 171.08 137.925 C 171.57 138.187 171.944 138.643 172.106 139.181 C 172.285 139.742 172.224 140.352 171.936 140.866 L 171.918 140.807 Z  M 178.027 121.694 L 172.906 134.019 L 143.086 118.039 L 150.552 106.976 C 151.784 105.152 154.197 104.556 156.137 105.597 L 176.077 116.326 C 178.039 117.356 178.893 119.712 178.046 121.76 L 178.027 121.694 Z  M 206.848 45.407 L 177.449 112.172 L 158.762 102.114 L 198.411 40.868 C 199.814 38.866 202.493 38.23 204.646 39.389 C 206.799 40.548 207.744 43.134 206.846 45.408 L 206.848 45.407 Z " fill="rgb(255,255,255)"/></g></g><path d="M 11.26 4 L 238.74 4 C 242.747 4 246 7.253 246 11.26 L 246 238.74 C 246 242.747 242.747 246 238.74 246 L 11.26 246 C 7.253 246 4 242.747 4 238.74 L 4 11.26 C 4 7.253 7.253 4 11.26 4 Z" style="fill:none;stroke:#FFFFFF;stroke-width:8;stroke-linecap:square;stroke-dasharray:18;stroke-miterlimit:2;"/></g></svg>