<?xml version="1.0" encoding="UTF-8" standalone="no"?>
<!-- Generator: Gravit.io -->
<svg xmlns="http://www.w3.org/2000/svg" xmlns:xlink="http://www.w3.org/1999/xlink" style="isolation:isolate" viewBox="0 0 250 250" width="250pt" height="250pt"><defs><clipPath id="_clipPath_Gn6CToJyGJtCXO09gqW3D7r9CFSRC6ew"><rect width="250" height="250"/></clipPath></defs><g clip-path="url(#_clipPath_Gn6CToJyGJtCXO09gqW3D7r9CFSRC6ew)"><rect width="250" height="250" style="fill:rgb(0,0,0)" fill-opacity="0"/><path d="M 10.34 8 L 239.66 8 C 240.951 8 242 9.049 242 10.34 L 242 239.66 C 242 240.951 240.951 242 239.66 242 L 10.34 242 C 9.049 242 8 240.951 8 239.66 L 8 10.34 C 8 9.049 9.049 8 10.34 8 Z" style="stroke:none;fill:#0179B2;stroke-miterlimit:10;"/><g><g><path d=" M 189.529 170.25 L 189.529 174.25 L 181.529 174.25 L 181.529 170.25 L 181.529 122.25 L 181.529 118.25 L 189.529 118.25 L 189.529 122.25 L 189.529 170.25 Z " fill="rgb(255,255,255)"/><path d=" M 161.529 150.25 L 157.529 150.25 L 157.529 142.25 L 161.529 142.25 L 209.529 142.25 L 213.529 142.25 L 213.529 150.25 L 209.529 150.25 L 161.529 150.25 Z " fill="rgb(255,255,255)"/></g><path d=" M 61.309 169.603 L 61.309 173.169 L 53.309 173.169 L 53.309 169.603 L 53.309 61.734 L 53.309 58.169 L 61.309 58.169 L 61.309 61.734 L 61.309 169.603 Z " fill="rgb(255,255,255)"/><path d=" M 217.059 108.085 L 217.059 62.578 C 217.059 60.347 216.209 58.202 214.701 56.629 C 213.192 55.055 211.136 54.169 208.997 54.169 L 23.121 54.169 L 23.121 54.169 C 20.982 54.169 18.925 55.055 17.417 56.629 C 15.909 58.202 15.059 60.347 15.059 62.578 L 15.059 168.759 C 15.059 170.99 15.909 173.135 17.417 174.709 C 18.925 176.282 20.982 177.169 23.121 177.169 L 149.584 177.169 C 147.765 174.794 146.15 172.242 144.768 169.541 L 23.121 169.541 C 22.919 169.541 22.728 169.455 22.59 169.312 C 22.453 169.169 22.371 168.969 22.371 168.759 L 22.371 62.578 C 22.371 62.369 22.453 62.168 22.59 62.025 C 22.728 61.882 22.919 61.797 23.121 61.797 L 23.121 61.797 L 208.997 61.797 C 209.198 61.797 209.39 61.882 209.527 62.025 C 209.664 62.168 209.747 62.369 209.747 62.578 L 209.747 102.868 C 212.342 104.371 214.79 106.12 217.059 108.085 Z " fill-rule="evenodd" fill="rgb(255,255,255)"/><mask id="_mask_vzeBXjW7sovMZfs3nvvRZSk3FONGlR97"><ellipse vector-effect="non-scaling-stroke" cx="185.5294117647058" cy="146.25" rx="49.411764705882376" ry="49.58139534883722" fill="white" stroke="none"/></mask><ellipse vector-effect="non-scaling-stroke" cx="185.5294117647058" cy="146.25" rx="49.411764705882376" ry="49.58139534883722" fill="none"/><ellipse vector-effect="non-scaling-stroke" cx="185.5294117647058" cy="146.25" rx="49.411764705882376" ry="49.58139534883722" fill="none" mask="url(#_mask_vzeBXjW7sovMZfs3nvvRZSk3FONGlR97)" stroke-width="16" stroke="rgb(255,255,255)" stroke-linejoin="miter" stroke-linecap="square" stroke-miterlimit="3"/></g><path d="M 11.26 4 L 238.74 4 C 242.747 4 246 7.253 246 11.26 L 246 238.74 C 246 242.747 242.747 246 238.74 246 L 11.26 246 C 7.253 246 4 242.747 4 238.74 L 4 11.26 C 4 7.253 7.253 4 11.26 4 Z" style="fill:none;stroke:#FFFFFF;stroke-width:8;stroke-linecap:square;stroke-miterlimit:2;"/></g></svg>