<?xml version="1.0" encoding="UTF-8" standalone="no"?>
<!-- Generator: Gravit.io -->
<svg xmlns="http://www.w3.org/2000/svg" xmlns:xlink="http://www.w3.org/1999/xlink" style="isolation:isolate" viewBox="0 0 250 250" width="250pt" height="250pt"><defs><clipPath id="_clipPath_ppx17WawUUvvnTG0B7roRAcLlLrDm7um"><rect width="250" height="250"/></clipPath></defs><g clip-path="url(#_clipPath_ppx17WawUUvvnTG0B7roRAcLlLrDm7um)"><rect width="250" height="250" style="fill:rgb(0,0,0)" fill-opacity="0"/><path d="M 10.34 8 L 239.66 8 C 240.951 8 242 9.049 242 10.34 L 242 239.66 C 242 240.951 240.951 242 239.66 242 L 10.34 242 C 9.049 242 8 240.951 8 239.66 L 8 10.34 C 8 9.049 9.049 8 10.34 8 Z" style="stroke:none;fill:#0179B2;stroke-miterlimit:10;"/><g><g><path d=" M 33.14 87.34 L 29.06 90.22 L 23.28 82.06 L 27.36 79.17 L 83.92 39.16 L 122.95 109.67 L 217.22 27.48 L 220.99 24.2 L 227.56 31.73 L 223.79 35.02 L 120.2 125.33 L 80.58 53.78 L 33.14 87.34 Z " fill="rgb(255,255,255)"/><circle vector-effect="non-scaling-stroke" cx="30.249999999999996" cy="83.25367647058826" r="12.746323529411736" fill="rgb(255,255,255)"/><circle vector-effect="non-scaling-stroke" cx="82.25367647058822" cy="46.470588235294144" r="12.74632352941174" fill="rgb(255,255,255)"/><circle vector-effect="non-scaling-stroke" cx="121.57352941176467" cy="117.50000000000003" r="12.746323529411733" fill="rgb(255,255,255)"/><circle vector-effect="non-scaling-stroke" cx="220.50735294117644" cy="31.250000000000014" r="12.74632352941174" fill="rgb(255,255,255)"/></g><g><path d="M 19.316 194 L 33.304 194 C 34.24 194 35 194.76 35 195.696 L 35 216.304 C 35 217.24 34.24 218 33.304 218 L 19.316 218 C 18.38 218 17.62 217.24 17.62 216.304 L 17.62 195.696 C 17.62 194.76 18.38 194 19.316 194 Z" style="stroke:none;fill:#FFFFFF;stroke-miterlimit:10;"/><path d="M 83.977 163 L 96.223 163 C 97.64 163 98.79 164.15 98.79 165.567 L 98.79 215.433 C 98.79 216.85 97.64 218 96.223 218 L 83.977 218 C 82.56 218 81.41 216.85 81.41 215.433 L 81.41 165.567 C 81.41 164.15 82.56 163 83.977 163 Z" style="stroke:none;fill:#FFFFFF;stroke-miterlimit:10;"/><path d="M 148.383 134 L 159.417 134 C 161.168 134 162.59 135.421 162.59 137.172 L 162.59 214.828 C 162.59 216.579 161.168 218 159.417 218 L 148.383 218 C 146.632 218 145.21 216.579 145.21 214.828 L 145.21 137.172 C 145.21 135.421 146.632 134 148.383 134 Z" style="stroke:none;fill:#FFFFFF;stroke-miterlimit:10;"/><path d="M 212.855 94 L 222.525 94 C 224.653 94 226.38 95.727 226.38 97.854 L 226.38 214.146 C 226.38 216.273 224.653 218 222.525 218 L 212.855 218 C 210.727 218 209 216.273 209 214.146 L 209 97.854 C 209 95.727 210.727 94 212.855 94 Z" style="stroke:none;fill:#FFFFFF;stroke-miterlimit:10;"/></g></g><path d="M 11.26 4 L 238.74 4 C 242.747 4 246 7.253 246 11.26 L 246 238.74 C 246 242.747 242.747 246 238.74 246 L 11.26 246 C 7.253 246 4 242.747 4 238.74 L 4 11.26 C 4 7.253 7.253 4 11.26 4 Z" style="fill:none;stroke:#FFFFFF;stroke-width:8;stroke-linecap:square;stroke-dasharray:18;stroke-miterlimit:2;"/></g></svg>