<?xml version="1.0" encoding="UTF-8" standalone="no"?>
<!-- Generator: Gravit.io -->
<svg xmlns="http://www.w3.org/2000/svg" xmlns:xlink="http://www.w3.org/1999/xlink" style="isolation:isolate" viewBox="0 0 250 250" width="250pt" height="250pt"><defs><clipPath id="_clipPath_iAcEi58doG848vsp83nv13eowvsb7BZ8"><rect width="250" height="250"/></clipPath></defs><g clip-path="url(#_clipPath_iAcEi58doG848vsp83nv13eowvsb7BZ8)"><rect width="250" height="250" style="fill:rgb(0,0,0)" fill-opacity="0"/><path d="M 10.34 8 L 239.66 8 C 240.951 8 242 9.049 242 10.34 L 242 239.66 C 242 240.951 240.951 242 239.66 242 L 10.34 242 C 9.049 242 8 240.951 8 239.66 L 8 10.34 C 8 9.049 9.049 8 10.34 8 Z" style="stroke:none;fill:#0179B2;stroke-miterlimit:10;"/><g><mask id="_mask_CyOyRWlYGZDna0bVZ0UrkRqACJHeC791"><path d=" M 87.954 87.326 Q 88.081 120.261 87.954 149.312 C 83.33 160.924 71.739 154.464 71.739 149.312 C 71.739 134.512 71.739 114.013 71.739 99.487 C 71.739 111.923 57.047 112.303 57.047 99.487 C 57.047 112.303 42.012 112.493 42.012 99.487 C 42.012 112.493 27.149 112.683 27.149 99.487 C 27.149 91.971 27.149 77.34 27.149 64.356 C 27.149 19.575 99.531 22.235 99.531 64.356 C 99.531 75.63 99.32 83.801 107.638 92.731 C 118.279 103.372 106.711 111.923 95.626 100.839 Q 90.024 95.237 87.954 87.326 Z " fill="white" stroke="none"/></mask><path d=" M 87.954 87.326 Q 88.081 120.261 87.954 149.312 C 83.33 160.924 71.739 154.464 71.739 149.312 C 71.739 134.512 71.739 114.013 71.739 99.487 C 71.739 111.923 57.047 112.303 57.047 99.487 C 57.047 112.303 42.012 112.493 42.012 99.487 C 42.012 112.493 27.149 112.683 27.149 99.487 C 27.149 91.971 27.149 77.34 27.149 64.356 C 27.149 19.575 99.531 22.235 99.531 64.356 C 99.531 75.63 99.32 83.801 107.638 92.731 C 118.279 103.372 106.711 111.923 95.626 100.839 Q 90.024 95.237 87.954 87.326 Z " fill="none"/><path d=" M 87.954 87.326 Q 88.081 120.261 87.954 149.312 C 83.33 160.924 71.739 154.464 71.739 149.312 C 71.739 134.512 71.739 114.013 71.739 99.487 C 71.739 111.923 57.047 112.303 57.047 99.487 C 57.047 112.303 42.012 112.493 42.012 99.487 C 42.012 112.493 27.149 112.683 27.149 99.487 C 27.149 91.971 27.149 77.34 27.149 64.356 C 27.149 19.575 99.531 22.235 99.531 64.356 C 99.531 75.63 99.32 83.801 107.638 92.731 C 118.279 103.372 106.711 111.923 95.626 100.839 Q 90.024 95.237 87.954 87.326 Z " fill="none" mask="url(#_mask_CyOyRWlYGZDna0bVZ0UrkRqACJHeC791)" vector-effect="non-scaling-stroke" stroke-width="8" stroke="rgb(255,255,255)" stroke-linejoin="miter" stroke-linecap="square" stroke-miterlimit="3"/><g><mask id="_mask_wvsLVtQwaoUAS0KOZDsmsKn661loISEB"><polygon points="189.032,126.267,137.851,155.817,137.851,96.718" fill="white" stroke="none"/></mask><polygon points="189.032,126.267,137.851,155.817,137.851,96.718" fill="none"/><polygon points="189.032,126.267,137.851,155.817,137.851,96.718" fill="none" mask="url(#_mask_wvsLVtQwaoUAS0KOZDsmsKn661loISEB)" vector-effect="non-scaling-stroke" stroke-width="6" stroke="rgb(255,255,255)" stroke-linejoin="miter" stroke-linecap="square" stroke-miterlimit="3"/><mask id="_mask_khM6NkYo6BZWOiR8cRzyXBrvB9GOAjHQ"><polygon points="222.851,126.267,171.67,155.817,171.67,96.718" fill="white" stroke="none"/></mask><polygon points="222.851,126.267,171.67,155.817,171.67,96.718" fill="none"/><polygon points="222.851,126.267,171.67,155.817,171.67,96.718" fill="none" mask="url(#_mask_khM6NkYo6BZWOiR8cRzyXBrvB9GOAjHQ)" vector-effect="non-scaling-stroke" stroke-width="6" stroke="rgb(255,255,255)" stroke-linejoin="miter" stroke-linecap="square" stroke-miterlimit="3"/></g><g><path d="M 32.678 189.96 L 124.732 189.96 C 126.293 189.96 127.56 191.227 127.56 192.788 L 127.56 215.412 C 127.56 216.973 126.293 218.24 124.732 218.24 L 32.678 218.24 C 31.117 218.24 29.85 216.973 29.85 215.412 L 29.85 192.788 C 29.85 191.227 31.117 189.96 32.678 189.96 Z" style="fill:none;stroke:#000000;stroke-width:6;stroke-linecap:square;stroke-miterlimit:2;"/><mask id="_mask_oB41fBMnGYVg7KxQ8ydiVfmE0uB9qVLU"><path d=" M 117.558 187.24 L 117.558 183.869 C 117.558 180.529 114.846 177.817 111.506 177.817 L 45.904 177.817 C 42.563 177.817 39.851 180.529 39.851 183.869 L 39.851 187.24 L 117.558 187.24 L 117.558 187.24 Z " fill="white" stroke="none"/></mask><path d=" M 117.558 187.24 L 117.558 183.869 C 117.558 180.529 114.846 177.817 111.506 177.817 L 45.904 177.817 C 42.563 177.817 39.851 180.529 39.851 183.869 L 39.851 187.24 L 117.558 187.24 L 117.558 187.24 Z " fill="none"/><path d=" M 117.558 187.24 L 117.558 183.869 C 117.558 180.529 114.846 177.817 111.506 177.817 L 45.904 177.817 C 42.563 177.817 39.851 180.529 39.851 183.869 L 39.851 187.24 L 117.558 187.24 L 117.558 187.24 Z " fill="none" mask="url(#_mask_oB41fBMnGYVg7KxQ8ydiVfmE0uB9qVLU)" vector-effect="non-scaling-stroke" stroke-width="6" stroke="rgb(255,255,255)" stroke-linejoin="miter" stroke-linecap="square" stroke-miterlimit="3"/></g></g><path d="M 11.26 4 L 238.74 4 C 242.747 4 246 7.253 246 11.26 L 246 238.74 C 246 242.747 242.747 246 238.74 246 L 11.26 246 C 7.253 246 4 242.747 4 238.74 L 4 11.26 C 4 7.253 7.253 4 11.26 4 Z" style="fill:none;stroke:#FFFFFF;stroke-width:8;stroke-linecap:square;stroke-dasharray:18;stroke-miterlimit:2;"/></g></svg>